<?xml version="1.0" encoding="UTF-8" standalone="no"?>
<!DOCTYPE svg PUBLIC "-//W3C//DTD SVG 1.1//EN"
 "http://www.w3.org/Graphics/SVG/1.1/DTD/svg11.dtd">
<!-- Generated by graphviz version 12.1.2 (0)
 -->
<!-- Title: SubmissionData Pages: 1 -->
<svg width="1690pt" height="341pt"
 viewBox="0.00 0.00 1690.00 340.75" xmlns="http://www.w3.org/2000/svg" xmlns:xlink="http://www.w3.org/1999/xlink">
<g id="graph0" class="graph" transform="scale(1 1) rotate(0) translate(4 336.75)">
<title>SubmissionData</title>
<polygon fill="white" stroke="none" points="-4,4 -4,-336.75 1686,-336.75 1686,4 -4,4"/>
<!-- Submission -->
<g id="node1" class="node">
<title>Submission</title>
<polygon fill="none" stroke="black" points="373,-328.75 4,-328.75 4,-121.75 373,-121.75 373,-328.75"/>
<polygon fill="none" stroke="black" points="377,-332.75 0,-332.75 0,-117.75 377,-117.75 377,-332.75"/>
<polygon fill="none" stroke="black" points="4,-303.25 4,-328.75 373,-328.75 373,-303.25 4,-303.25"/>
<text text-anchor="start" x="130.75" y="-313.45" font-family="Monospace" font-weight="bold" font-size="14.00">mob:Submission</text>
<polygon fill="none" stroke="black" points="4,-121.75 4,-303.25 373,-303.25 373,-121.75 4,-121.75"/>
<text text-anchor="start" x="7" y="-286.95" font-family="Monospace" font-size="14.00"> core:uuid : xsd:string </text>
<text text-anchor="start" x="7" y="-267.45" font-family="Monospace" font-size="14.00"> dct:created : xsd:dateTime </text>
<text text-anchor="start" x="7" y="-247.95" font-family="Monospace" font-size="14.00"> nmo:sentDate : xsd:dateTime </text>
<text text-anchor="start" x="7" y="-228.45" font-family="Monospace" font-size="14.00"> dct:modified : xsd:dateTime </text>
<text text-anchor="start" x="7" y="-208.95" font-family="Monospace" font-size="14.00"> pav:createdBy → besluit:Bestuurseenheid </text>
<text text-anchor="start" x="7" y="-189.45" font-family="Monospace" font-size="14.00"> pav:providedBy → ext:Vendor </text>
<text text-anchor="start" x="7" y="-169.95" font-family="Monospace" font-size="14.00"> adms:status → skos:Concept </text>
<text text-anchor="start" x="7" y="-150.45" font-family="Monospace" font-size="14.00"> adms:status → ext:SubmissionDocumentStatus </text>
<text text-anchor="start" x="7" y="-130.95" font-family="Monospace" font-size="14.00"> prov:atLocation → IRI </text>
</g>
<!-- SubmissionDocument -->
<g id="node2" class="node">
<title>SubmissionDocument</title>
<polygon fill="none" stroke="black" points="1269.12,-307.75 1056.88,-307.75 1056.88,-256.75 1269.12,-256.75 1269.12,-307.75"/>
<polygon fill="none" stroke="black" points="1273.12,-311.75 1052.88,-311.75 1052.88,-252.75 1273.12,-252.75 1273.12,-311.75"/>
<polygon fill="none" stroke="black" points="1056.88,-282.25 1056.88,-307.75 1269.12,-307.75 1269.12,-282.25 1056.88,-282.25"/>
<text text-anchor="start" x="1072.25" y="-292.45" font-family="Monospace" font-weight="bold" font-size="14.00">ext:SubmissionDocument</text>
<polygon fill="none" stroke="black" points="1056.88,-256.75 1056.88,-282.25 1269.12,-282.25 1269.12,-256.75 1056.88,-256.75"/>
<text text-anchor="start" x="1059.88" y="-266.95" font-family="Monospace" font-size="14.00"> </text>
<text text-anchor="start" x="1068.12" y="-266.95" font-family="Monospace" font-style="italic" font-size="14.00">No properties available</text>
<text text-anchor="start" x="1257.88" y="-266.95" font-family="Monospace" font-size="14.00"> </text>
</g>
<!-- Submission&#45;&gt;SubmissionDocument -->
<g id="edge1" class="edge">
<title>Submission&#45;&gt;SubmissionDocument</title>
<path fill="none" stroke="black" d="M377.22,-243.4C426.41,-247.74 479.42,-252.03 528.5,-255.25 706.84,-266.94 913.76,-274.66 1041.29,-278.75"/>
<polygon fill="black" stroke="black" points="1041,-282.24 1051.11,-279.06 1041.22,-275.24 1041,-282.24"/>
<text text-anchor="middle" x="700.5" y="-278.55" font-family="Monospace" font-size="14.00">dct:subject</text>
</g>
<!-- FormData -->
<g id="node4" class="node">
<title>FormData</title>
<polygon fill="none" stroke="black" points="868.5,-242.5 532.5,-242.5 532.5,-94 868.5,-94 868.5,-242.5"/>
<polygon fill="none" stroke="black" points="872.5,-246.5 528.5,-246.5 528.5,-90 872.5,-90 872.5,-246.5"/>
<polygon fill="none" stroke="black" points="532.5,-217 532.5,-242.5 868.5,-242.5 868.5,-217 532.5,-217"/>
<text text-anchor="start" x="655.12" y="-227.2" font-family="Monospace" font-weight="bold" font-size="14.00">am:FormData</text>
<polygon fill="none" stroke="black" points="532.5,-94 532.5,-217 868.5,-217 868.5,-94 532.5,-94"/>
<text text-anchor="start" x="535.5" y="-200.7" font-family="Monospace" font-size="14.00"> core:uuid : xsd:string </text>
<text text-anchor="start" x="535.5" y="-181.2" font-family="Monospace" font-size="14.00"> dct:type → skos:Concept </text>
<text text-anchor="start" x="535.5" y="-161.7" font-family="Monospace" font-size="14.00"> fd:submissionType → skos:Concept </text>
<text text-anchor="start" x="535.5" y="-142.2" font-family="Monospace" font-size="14.00"> fd:sessionStartedAtTime : xsd:dateTime </text>
<text text-anchor="start" x="535.5" y="-122.7" font-family="Monospace" font-size="14.00"> le:financialYear : xsd:string </text>
<text text-anchor="start" x="535.5" y="-103.2" font-family="Monospace" font-size="14.00"> eli:passed_by → besluit:Bestuursorgaan </text>
</g>
<!-- Submission&#45;&gt;FormData -->
<g id="edge2" class="edge">
<title>Submission&#45;&gt;FormData</title>
<path fill="none" stroke="black" d="M377.23,-204.27C422.89,-199.17 471.64,-193.72 517.05,-188.64"/>
<polygon fill="black" stroke="black" points="517.15,-192.15 526.7,-187.56 516.37,-185.2 517.15,-192.15"/>
<text text-anchor="middle" x="452.75" y="-208.06" font-family="Monospace" font-size="14.00">prov:generated</text>
</g>
<!-- Artikel -->
<g id="node3" class="node">
<title>Artikel</title>
<polygon fill="none" stroke="black" points="1678,-316.5 1465.75,-316.5 1465.75,-246 1678,-246 1678,-316.5"/>
<polygon fill="none" stroke="black" points="1682,-320.5 1461.75,-320.5 1461.75,-242 1682,-242 1682,-320.5"/>
<polygon fill="none" stroke="black" points="1465.75,-291 1465.75,-316.5 1678,-316.5 1678,-291 1465.75,-291"/>
<text text-anchor="start" x="1510" y="-301.2" font-family="Monospace" font-weight="bold" font-size="14.00">besluit:Artikel</text>
<polygon fill="none" stroke="black" points="1465.75,-246 1465.75,-291 1678,-291 1678,-246 1465.75,-246"/>
<text text-anchor="start" x="1468.75" y="-274.7" font-family="Monospace" font-size="14.00"> core:uuid : xsd:string </text>
<text text-anchor="start" x="1468.75" y="-255.2" font-family="Monospace" font-size="14.00"> eli:type_document → IRI </text>
</g>
<!-- SubmissionDocument&#45;&gt;Artikel -->
<g id="edge3" class="edge">
<title>SubmissionDocument&#45;&gt;Artikel</title>
<path fill="none" stroke="black" d="M1273.57,-281.98C1328.07,-281.85 1394.08,-281.68 1450.05,-281.55"/>
<polygon fill="black" stroke="black" points="1449.96,-285.05 1459.95,-281.52 1449.94,-278.05 1449.96,-285.05"/>
<text text-anchor="middle" x="1390.12" y="-288.01" font-family="Monospace" font-size="14.00">eli:has_part</text>
</g>
<!-- Artikel&#45;&gt;SubmissionDocument -->
<g id="edge4" class="edge">
<title>Artikel&#45;&gt;SubmissionDocument</title>
<path fill="none" stroke="black" d="M1461.49,-259.72C1455.5,-258.95 1449.56,-258.28 1443.75,-257.75 1391.61,-252.97 1333.99,-256.51 1284.66,-262.24"/>
<polygon fill="black" stroke="black" points="1284.3,-258.75 1274.8,-263.43 1285.14,-265.7 1284.3,-258.75"/>
<text text-anchor="middle" x="1390.12" y="-263.95" font-family="Monospace" font-size="14.00">eli:refers_to</text>
</g>
<!-- FormData&#45;&gt;SubmissionDocument -->
<g id="edge6" class="edge">
<title>FormData&#45;&gt;SubmissionDocument</title>
<path fill="none" stroke="black" d="M872.97,-210.7C928.96,-224.56 989.91,-239.65 1041.35,-252.38"/>
<polygon fill="black" stroke="black" points="1040.49,-255.78 1051.04,-254.78 1042.18,-248.98 1040.49,-255.78"/>
<text text-anchor="middle" x="940" y="-245.01" font-family="Monospace" font-size="14.00">dct:relation</text>
</g>
<!-- File -->
<g id="node5" class="node">
<title>File</title>
<polygon fill="none" stroke="black" points="1314.5,-230.5 1011.5,-230.5 1011.5,-4 1314.5,-4 1314.5,-230.5"/>
<polygon fill="none" stroke="black" points="1318.5,-234.5 1007.5,-234.5 1007.5,0 1318.5,0 1318.5,-234.5"/>
<polygon fill="none" stroke="black" points="1011.5,-205 1011.5,-230.5 1314.5,-230.5 1314.5,-205 1011.5,-205"/>
<text text-anchor="start" x="1088.75" y="-215.2" font-family="Monospace" font-weight="bold" font-size="14.00">nfo:FileDataObject</text>
<polygon fill="none" stroke="black" points="1011.5,-4 1011.5,-205 1314.5,-205 1314.5,-4 1011.5,-4"/>
<text text-anchor="start" x="1014.5" y="-188.7" font-family="Monospace" font-size="14.00"> core:uuid : xsd:string </text>
<text text-anchor="start" x="1014.5" y="-169.2" font-family="Monospace" font-size="14.00"> dct:created : xsd:dateTime </text>
<text text-anchor="start" x="1014.5" y="-149.7" font-family="Monospace" font-size="14.00"> dct:modified : xsd:dateTime </text>
<text text-anchor="start" x="1014.5" y="-130.2" font-family="Monospace" font-size="14.00"> nfo:fileSize : xsd:string </text>
<text text-anchor="start" x="1014.5" y="-110.7" font-family="Monospace" font-size="14.00"> dbpedia:fileExtension : xsd:string </text>
<text text-anchor="start" x="1014.5" y="-91.2" font-family="Monospace" font-size="14.00"> dct:format : xsd:string </text>
<text text-anchor="start" x="1014.5" y="-71.7" font-family="Monospace" font-size="14.00"> nfo:fileName : xsd:string </text>
<text text-anchor="start" x="1014.5" y="-52.2" font-family="Monospace" font-size="14.00"> adms:status → IRI </text>
<text text-anchor="start" x="1014.5" y="-32.7" font-family="Monospace" font-size="14.00"> prov:hadPrimarySource → IRI </text>
<text text-anchor="start" x="1014.5" y="-13.2" font-family="Monospace" font-size="14.00"> nie:url : xsd:string </text>
</g>
<!-- FormData&#45;&gt;File -->
<g id="edge5" class="edge">
<title>FormData&#45;&gt;File</title>
<path fill="none" stroke="black" d="M872.97,-149.26C913.18,-144.81 955.94,-140.07 995.91,-135.64"/>
<polygon fill="black" stroke="black" points="996.04,-139.15 1005.59,-134.57 995.27,-132.19 996.04,-139.15"/>
<text text-anchor="middle" x="940" y="-153.52" font-family="Monospace" font-size="14.00">dct:hasPart</text>
</g>
</g>
</svg>
