<?xml version="1.0" encoding="UTF-8" standalone="no"?>
<!DOCTYPE svg PUBLIC "-//W3C//DTD SVG 1.1//EN"
 "http://www.w3.org/Graphics/SVG/1.1/DTD/svg11.dtd">
<!-- Generated by graphviz version 11.0.0 (0)
 -->
<!-- Title: SubmissionData Pages: 1 -->
<svg width="1335pt" height="378pt"
 viewBox="0.00 0.00 1334.75 378.00" xmlns="http://www.w3.org/2000/svg" xmlns:xlink="http://www.w3.org/1999/xlink">
<g id="graph0" class="graph" transform="scale(1 1) rotate(0) translate(4 374)">
<title>SubmissionData</title>
<polygon fill="white" stroke="none" points="-4,4 -4,-374 1330.75,-374 1330.75,4 -4,4"/>
<!-- Submission -->
<g id="node1" class="node">
<title>Submission</title>
<polygon fill="none" stroke="black" points="373,-315.25 4,-315.25 4,-88.75 373,-88.75 373,-315.25"/>
<polygon fill="none" stroke="black" points="377,-319.25 0,-319.25 0,-84.75 377,-84.75 377,-319.25"/>
<polygon fill="none" stroke="black" points="4,-289.75 4,-315.25 373,-315.25 373,-289.75 4,-289.75"/>
<text text-anchor="start" x="130.75" y="-299.95" font-family="Monospace" font-weight="bold" font-size="14.00">mob:Submission</text>
<polygon fill="none" stroke="black" points="4,-88.75 4,-289.75 373,-289.75 373,-88.75 4,-88.75"/>
<text text-anchor="start" x="7" y="-273.45" font-family="Monospace" font-size="14.00"> core:uuid : xsd:string </text>
<text text-anchor="start" x="7" y="-253.95" font-family="Monospace" font-size="14.00"> dct:created : xsd:dateTime </text>
<text text-anchor="start" x="7" y="-234.45" font-family="Monospace" font-size="14.00"> nmo:sentDate : xsd:dateTime </text>
<text text-anchor="start" x="7" y="-214.95" font-family="Monospace" font-size="14.00"> dct:modified : xsd:dateTime </text>
<text text-anchor="start" x="7" y="-195.45" font-family="Monospace" font-size="14.00"> pav:createdBy → besluit:Bestuurseenheid </text>
<text text-anchor="start" x="7" y="-175.95" font-family="Monospace" font-size="14.00"> pav:providedBy → ext:Vendor </text>
<text text-anchor="start" x="7" y="-156.45" font-family="Monospace" font-size="14.00"> adms:status → skos:Concept </text>
<text text-anchor="start" x="7" y="-136.95" font-family="Monospace" font-size="14.00"> adms:status → ext:SubmissionDocumentStatus </text>
<text text-anchor="start" x="7" y="-117.45" font-family="Monospace" font-size="14.00"> prov:atLocation → IRI </text>
<text text-anchor="start" x="184.38" y="-97.95" font-family="Monospace" font-size="14.00"> </text>
</g>
<!-- SubmissionDocument -->
<g id="node2" class="node">
<title>SubmissionDocument</title>
<polygon fill="none" stroke="black" points="806.62,-303.5 594.38,-303.5 594.38,-252.5 806.62,-252.5 806.62,-303.5"/>
<polygon fill="none" stroke="black" points="810.62,-307.5 590.38,-307.5 590.38,-248.5 810.62,-248.5 810.62,-307.5"/>
<polygon fill="none" stroke="black" points="594.38,-278 594.38,-303.5 806.62,-303.5 806.62,-278 594.38,-278"/>
<text text-anchor="start" x="609.75" y="-288.2" font-family="Monospace" font-weight="bold" font-size="14.00">ext:SubmissionDocument</text>
<polygon fill="none" stroke="black" points="594.38,-252.5 594.38,-278 806.62,-278 806.62,-252.5 594.38,-252.5"/>
<text text-anchor="start" x="597.38" y="-262.7" font-family="Monospace" font-size="14.00"> </text>
<text text-anchor="start" x="605.62" y="-262.7" font-family="Monospace" font-style="italic" font-size="14.00">No properties available</text>
<text text-anchor="start" x="795.38" y="-262.7" font-family="Monospace" font-size="14.00"> </text>
</g>
<!-- Submission&#45;&gt;SubmissionDocument -->
<g id="edge1" class="edge">
<title>Submission&#45;&gt;SubmissionDocument</title>
<path fill="none" stroke="black" d="M377.23,-229.98C444.61,-240.02 518.74,-251.06 578.89,-260.03"/>
<polygon fill="black" stroke="black" points="578.06,-263.44 588.46,-261.45 579.09,-256.52 578.06,-263.44"/>
<text text-anchor="middle" x="452.75" y="-255.2" font-family="Monospace" font-size="14.00">dct:subject</text>
</g>
<!-- FormData -->
<g id="node4" class="node">
<title>FormData</title>
<polygon fill="none" stroke="black" points="868.5,-219 532.5,-219 532.5,-51 868.5,-51 868.5,-219"/>
<polygon fill="none" stroke="black" points="872.5,-223 528.5,-223 528.5,-47 872.5,-47 872.5,-223"/>
<polygon fill="none" stroke="black" points="532.5,-193.5 532.5,-219 868.5,-219 868.5,-193.5 532.5,-193.5"/>
<text text-anchor="start" x="655.12" y="-203.7" font-family="Monospace" font-weight="bold" font-size="14.00">am:FormData</text>
<polygon fill="none" stroke="black" points="532.5,-51 532.5,-193.5 868.5,-193.5 868.5,-51 532.5,-51"/>
<text text-anchor="start" x="535.5" y="-177.2" font-family="Monospace" font-size="14.00"> core:uuid : xsd:string </text>
<text text-anchor="start" x="535.5" y="-157.7" font-family="Monospace" font-size="14.00"> dct:type → skos:Concept </text>
<text text-anchor="start" x="535.5" y="-138.2" font-family="Monospace" font-size="14.00"> fd:submissionType → skos:Concept </text>
<text text-anchor="start" x="535.5" y="-118.7" font-family="Monospace" font-size="14.00"> fd:sessionStartedAtTime : xsd:dateTime </text>
<text text-anchor="start" x="535.5" y="-99.2" font-family="Monospace" font-size="14.00"> le:financialYear : xsd:string </text>
<text text-anchor="start" x="535.5" y="-79.7" font-family="Monospace" font-size="14.00"> eli:passed_by → besluit:Bestuursorgaan </text>
<text text-anchor="start" x="696.38" y="-60.2" font-family="Monospace" font-size="14.00"> </text>
</g>
<!-- Submission&#45;&gt;FormData -->
<g id="edge2" class="edge">
<title>Submission&#45;&gt;FormData</title>
<path fill="none" stroke="black" d="M377.23,-177.34C422.89,-171.34 471.64,-164.93 517.05,-158.97"/>
<polygon fill="black" stroke="black" points="517.25,-162.47 526.71,-157.7 516.33,-155.53 517.25,-162.47"/>
<text text-anchor="middle" x="452.75" y="-180.2" font-family="Monospace" font-size="14.00">prov:generated</text>
</g>
<!-- Artikel -->
<g id="node3" class="node">
<title>Artikel</title>
<polygon fill="none" stroke="black" points="1277.38,-366 1065.12,-366 1065.12,-276 1277.38,-276 1277.38,-366"/>
<polygon fill="none" stroke="black" points="1281.38,-370 1061.12,-370 1061.12,-272 1281.38,-272 1281.38,-370"/>
<polygon fill="none" stroke="black" points="1065.12,-340.5 1065.12,-366 1277.38,-366 1277.38,-340.5 1065.12,-340.5"/>
<text text-anchor="start" x="1109.38" y="-350.7" font-family="Monospace" font-weight="bold" font-size="14.00">besluit:Artikel</text>
<polygon fill="none" stroke="black" points="1065.12,-276 1065.12,-340.5 1277.38,-340.5 1277.38,-276 1065.12,-276"/>
<text text-anchor="start" x="1068.12" y="-324.2" font-family="Monospace" font-size="14.00"> core:uuid : xsd:string </text>
<text text-anchor="start" x="1068.12" y="-304.7" font-family="Monospace" font-size="14.00"> eli:type_document → IRI </text>
<text text-anchor="start" x="1167.12" y="-285.2" font-family="Monospace" font-size="14.00"> </text>
</g>
<!-- SubmissionDocument&#45;&gt;Artikel -->
<g id="edge3" class="edge">
<title>SubmissionDocument&#45;&gt;Artikel</title>
<path fill="none" stroke="black" d="M810.87,-290.76C836.95,-293.63 864.7,-296.55 890.5,-299 942.58,-303.94 1000.19,-308.61 1049.53,-312.36"/>
<polygon fill="black" stroke="black" points="1049.16,-315.84 1059.4,-313.11 1049.69,-308.86 1049.16,-315.84"/>
<text text-anchor="middle" x="944.12" y="-313.2" font-family="Monospace" font-size="14.00">eli:has_part</text>
</g>
<!-- Artikel&#45;&gt;SubmissionDocument -->
<g id="edge4" class="edge">
<title>Artikel&#45;&gt;SubmissionDocument</title>
<path fill="none" stroke="black" d="M1060.66,-287.58C1039.95,-282.56 1018.33,-278.17 997.75,-275.5 940.37,-268.06 876.21,-267.64 822.31,-269.51"/>
<polygon fill="black" stroke="black" points="822.34,-266.01 812.48,-269.88 822.61,-273 822.34,-266.01"/>
<text text-anchor="middle" x="944.12" y="-281.2" font-family="Monospace" font-size="14.00">eli:refers_to</text>
</g>
<!-- File -->
<g id="node5" class="node">
<title>File</title>
<polygon fill="none" stroke="black" points="1322.75,-250 1019.75,-250 1019.75,-4 1322.75,-4 1322.75,-250"/>
<polygon fill="none" stroke="black" points="1326.75,-254 1015.75,-254 1015.75,0 1326.75,0 1326.75,-254"/>
<polygon fill="none" stroke="black" points="1019.75,-224.5 1019.75,-250 1322.75,-250 1322.75,-224.5 1019.75,-224.5"/>
<text text-anchor="start" x="1097" y="-234.7" font-family="Monospace" font-weight="bold" font-size="14.00">nfo:FileDataObject</text>
<polygon fill="none" stroke="black" points="1019.75,-4 1019.75,-224.5 1322.75,-224.5 1322.75,-4 1019.75,-4"/>
<text text-anchor="start" x="1022.75" y="-208.2" font-family="Monospace" font-size="14.00"> core:uuid : xsd:string </text>
<text text-anchor="start" x="1022.75" y="-188.7" font-family="Monospace" font-size="14.00"> dct:created : xsd:dateTime </text>
<text text-anchor="start" x="1022.75" y="-169.2" font-family="Monospace" font-size="14.00"> dct:modified : xsd:dateTime </text>
<text text-anchor="start" x="1022.75" y="-149.7" font-family="Monospace" font-size="14.00"> nfo:fileSize : xsd:string </text>
<text text-anchor="start" x="1022.75" y="-130.2" font-family="Monospace" font-size="14.00"> dbpedia:fileExtension : xsd:string </text>
<text text-anchor="start" x="1022.75" y="-110.7" font-family="Monospace" font-size="14.00"> dct:format : xsd:string </text>
<text text-anchor="start" x="1022.75" y="-91.2" font-family="Monospace" font-size="14.00"> nfo:fileName : xsd:string </text>
<text text-anchor="start" x="1022.75" y="-71.7" font-family="Monospace" font-size="14.00"> adms:status → IRI </text>
<text text-anchor="start" x="1022.75" y="-52.2" font-family="Monospace" font-size="14.00"> prov:hadPrimarySource → IRI </text>
<text text-anchor="start" x="1022.75" y="-32.7" font-family="Monospace" font-size="14.00"> nie:url : xsd:string </text>
<text text-anchor="start" x="1167.12" y="-13.2" font-family="Monospace" font-size="14.00"> </text>
</g>
<!-- FormData&#45;&gt;File -->
<g id="edge5" class="edge">
<title>FormData&#45;&gt;File</title>
<path fill="none" stroke="black" d="M872.72,-132.08C915.57,-131.35 961.47,-130.56 1004.08,-129.84"/>
<polygon fill="black" stroke="black" points="1003.96,-133.34 1013.9,-129.67 1003.84,-126.34 1003.96,-133.34"/>
<text text-anchor="middle" x="944.12" y="-137.2" font-family="Monospace" font-size="14.00">dct:hasPart</text>
</g>
</g>
</svg>
