<?xml version="1.0" encoding="UTF-8" standalone="no"?>
<!DOCTYPE svg PUBLIC "-//W3C//DTD SVG 1.1//EN"
 "http://www.w3.org/Graphics/SVG/1.1/DTD/svg11.dtd">
<!-- Generated by graphviz version 11.0.0 (0)
 -->
<!-- Title: SubmissionData Pages: 1 -->
<svg width="1335pt" height="340pt"
 viewBox="0.00 0.00 1334.75 339.50" xmlns="http://www.w3.org/2000/svg" xmlns:xlink="http://www.w3.org/1999/xlink">
<g id="graph0" class="graph" transform="scale(1 1) rotate(0) translate(4 335.5)">
<title>SubmissionData</title>
<polygon fill="white" stroke="none" points="-4,4 -4,-335.5 1330.75,-335.5 1330.75,4 -4,4"/>
<!-- Submission -->
<g id="node1" class="node">
<title>Submission</title>
<polygon fill="none" stroke="black" points="373,-285.75 4,-285.75 4,-78.75 373,-78.75 373,-285.75"/>
<polygon fill="none" stroke="black" points="377,-289.75 0,-289.75 0,-74.75 377,-74.75 377,-289.75"/>
<polygon fill="none" stroke="black" points="4,-260.25 4,-285.75 373,-285.75 373,-260.25 4,-260.25"/>
<text text-anchor="start" x="130.75" y="-270.45" font-family="Monospace" font-weight="bold" font-size="14.00">mob:Submission</text>
<polygon fill="none" stroke="black" points="4,-78.75 4,-260.25 373,-260.25 373,-78.75 4,-78.75"/>
<text text-anchor="start" x="7" y="-243.95" font-family="Monospace" font-size="14.00"> core:uuid : xsd:string </text>
<text text-anchor="start" x="7" y="-224.45" font-family="Monospace" font-size="14.00"> dct:created : xsd:dateTime </text>
<text text-anchor="start" x="7" y="-204.95" font-family="Monospace" font-size="14.00"> nmo:sentDate : xsd:dateTime </text>
<text text-anchor="start" x="7" y="-185.45" font-family="Monospace" font-size="14.00"> dct:modified : xsd:dateTime </text>
<text text-anchor="start" x="7" y="-165.95" font-family="Monospace" font-size="14.00"> pav:createdBy → besluit:Bestuurseenheid </text>
<text text-anchor="start" x="7" y="-146.45" font-family="Monospace" font-size="14.00"> pav:providedBy → ext:Vendor </text>
<text text-anchor="start" x="7" y="-126.95" font-family="Monospace" font-size="14.00"> adms:status → skos:Concept </text>
<text text-anchor="start" x="7" y="-107.45" font-family="Monospace" font-size="14.00"> adms:status → ext:SubmissionDocumentStatus </text>
<text text-anchor="start" x="7" y="-87.95" font-family="Monospace" font-size="14.00"> prov:atLocation → IRI </text>
</g>
<!-- SubmissionDocument -->
<g id="node2" class="node">
<title>SubmissionDocument</title>
<polygon fill="none" stroke="black" points="806.62,-274.75 594.38,-274.75 594.38,-223.75 806.62,-223.75 806.62,-274.75"/>
<polygon fill="none" stroke="black" points="810.62,-278.75 590.38,-278.75 590.38,-219.75 810.62,-219.75 810.62,-278.75"/>
<polygon fill="none" stroke="black" points="594.38,-249.25 594.38,-274.75 806.62,-274.75 806.62,-249.25 594.38,-249.25"/>
<text text-anchor="start" x="609.75" y="-259.45" font-family="Monospace" font-weight="bold" font-size="14.00">ext:SubmissionDocument</text>
<polygon fill="none" stroke="black" points="594.38,-223.75 594.38,-249.25 806.62,-249.25 806.62,-223.75 594.38,-223.75"/>
<text text-anchor="start" x="597.38" y="-233.95" font-family="Monospace" font-size="14.00"> </text>
<text text-anchor="start" x="605.62" y="-233.95" font-family="Monospace" font-style="italic" font-size="14.00">No properties available</text>
<text text-anchor="start" x="795.38" y="-233.95" font-family="Monospace" font-size="14.00"> </text>
</g>
<!-- Submission&#45;&gt;SubmissionDocument -->
<g id="edge1" class="edge">
<title>Submission&#45;&gt;SubmissionDocument</title>
<path fill="none" stroke="black" d="M377.23,-206.91C444.61,-215.76 518.74,-225.5 578.89,-233.41"/>
<polygon fill="black" stroke="black" points="578.09,-236.83 588.46,-234.66 579,-229.89 578.09,-236.83"/>
<text text-anchor="middle" x="452.75" y="-229.45" font-family="Monospace" font-size="14.00">dct:subject</text>
</g>
<!-- FormData -->
<g id="node4" class="node">
<title>FormData</title>
<polygon fill="none" stroke="black" points="868.5,-194.5 532.5,-194.5 532.5,-46 868.5,-46 868.5,-194.5"/>
<polygon fill="none" stroke="black" points="872.5,-198.5 528.5,-198.5 528.5,-42 872.5,-42 872.5,-198.5"/>
<polygon fill="none" stroke="black" points="532.5,-169 532.5,-194.5 868.5,-194.5 868.5,-169 532.5,-169"/>
<text text-anchor="start" x="655.12" y="-179.2" font-family="Monospace" font-weight="bold" font-size="14.00">am:FormData</text>
<polygon fill="none" stroke="black" points="532.5,-46 532.5,-169 868.5,-169 868.5,-46 532.5,-46"/>
<text text-anchor="start" x="535.5" y="-152.7" font-family="Monospace" font-size="14.00"> core:uuid : xsd:string </text>
<text text-anchor="start" x="535.5" y="-133.2" font-family="Monospace" font-size="14.00"> dct:type → skos:Concept </text>
<text text-anchor="start" x="535.5" y="-113.7" font-family="Monospace" font-size="14.00"> fd:submissionType → skos:Concept </text>
<text text-anchor="start" x="535.5" y="-94.2" font-family="Monospace" font-size="14.00"> fd:sessionStartedAtTime : xsd:dateTime </text>
<text text-anchor="start" x="535.5" y="-74.7" font-family="Monospace" font-size="14.00"> le:financialYear : xsd:string </text>
<text text-anchor="start" x="535.5" y="-55.2" font-family="Monospace" font-size="14.00"> eli:passed_by → besluit:Bestuursorgaan </text>
</g>
<!-- Submission&#45;&gt;FormData -->
<g id="edge2" class="edge">
<title>Submission&#45;&gt;FormData</title>
<path fill="none" stroke="black" d="M377.23,-159.43C422.89,-153.88 471.64,-147.95 517.05,-142.43"/>
<polygon fill="black" stroke="black" points="517.2,-145.94 526.7,-141.26 516.35,-138.99 517.2,-145.94"/>
<text text-anchor="middle" x="452.75" y="-162.45" font-family="Monospace" font-size="14.00">prov:generated</text>
</g>
<!-- Artikel -->
<g id="node3" class="node">
<title>Artikel</title>
<polygon fill="none" stroke="black" points="1277.38,-327.5 1065.12,-327.5 1065.12,-257 1277.38,-257 1277.38,-327.5"/>
<polygon fill="none" stroke="black" points="1281.38,-331.5 1061.12,-331.5 1061.12,-253 1281.38,-253 1281.38,-331.5"/>
<polygon fill="none" stroke="black" points="1065.12,-302 1065.12,-327.5 1277.38,-327.5 1277.38,-302 1065.12,-302"/>
<text text-anchor="start" x="1109.38" y="-312.2" font-family="Monospace" font-weight="bold" font-size="14.00">besluit:Artikel</text>
<polygon fill="none" stroke="black" points="1065.12,-257 1065.12,-302 1277.38,-302 1277.38,-257 1065.12,-257"/>
<text text-anchor="start" x="1068.12" y="-285.7" font-family="Monospace" font-size="14.00"> core:uuid : xsd:string </text>
<text text-anchor="start" x="1068.12" y="-266.2" font-family="Monospace" font-size="14.00"> eli:type_document → IRI </text>
</g>
<!-- SubmissionDocument&#45;&gt;Artikel -->
<g id="edge3" class="edge">
<title>SubmissionDocument&#45;&gt;Artikel</title>
<path fill="none" stroke="black" d="M810.87,-262.01C836.95,-264.88 864.7,-267.8 890.5,-270.25 942.58,-275.19 1000.19,-279.86 1049.53,-283.61"/>
<polygon fill="black" stroke="black" points="1049.16,-287.09 1059.4,-284.36 1049.69,-280.11 1049.16,-287.09"/>
<text text-anchor="middle" x="944.12" y="-284.45" font-family="Monospace" font-size="14.00">eli:has_part</text>
</g>
<!-- Artikel&#45;&gt;SubmissionDocument -->
<g id="edge4" class="edge">
<title>Artikel&#45;&gt;SubmissionDocument</title>
<path fill="none" stroke="black" d="M1060.66,-258.83C1039.95,-253.81 1018.33,-249.42 997.75,-246.75 940.37,-239.31 876.21,-238.89 822.31,-240.76"/>
<polygon fill="black" stroke="black" points="822.34,-237.26 812.48,-241.13 822.61,-244.25 822.34,-237.26"/>
<text text-anchor="middle" x="944.12" y="-252.45" font-family="Monospace" font-size="14.00">eli:refers_to</text>
</g>
<!-- File -->
<g id="node5" class="node">
<title>File</title>
<polygon fill="none" stroke="black" points="1322.75,-230.5 1019.75,-230.5 1019.75,-4 1322.75,-4 1322.75,-230.5"/>
<polygon fill="none" stroke="black" points="1326.75,-234.5 1015.75,-234.5 1015.75,0 1326.75,0 1326.75,-234.5"/>
<polygon fill="none" stroke="black" points="1019.75,-205 1019.75,-230.5 1322.75,-230.5 1322.75,-205 1019.75,-205"/>
<text text-anchor="start" x="1097" y="-215.2" font-family="Monospace" font-weight="bold" font-size="14.00">nfo:FileDataObject</text>
<polygon fill="none" stroke="black" points="1019.75,-4 1019.75,-205 1322.75,-205 1322.75,-4 1019.75,-4"/>
<text text-anchor="start" x="1022.75" y="-188.7" font-family="Monospace" font-size="14.00"> core:uuid : xsd:string </text>
<text text-anchor="start" x="1022.75" y="-169.2" font-family="Monospace" font-size="14.00"> dct:created : xsd:dateTime </text>
<text text-anchor="start" x="1022.75" y="-149.7" font-family="Monospace" font-size="14.00"> dct:modified : xsd:dateTime </text>
<text text-anchor="start" x="1022.75" y="-130.2" font-family="Monospace" font-size="14.00"> nfo:fileSize : xsd:string </text>
<text text-anchor="start" x="1022.75" y="-110.7" font-family="Monospace" font-size="14.00"> dbpedia:fileExtension : xsd:string </text>
<text text-anchor="start" x="1022.75" y="-91.2" font-family="Monospace" font-size="14.00"> dct:format : xsd:string </text>
<text text-anchor="start" x="1022.75" y="-71.7" font-family="Monospace" font-size="14.00"> nfo:fileName : xsd:string </text>
<text text-anchor="start" x="1022.75" y="-52.2" font-family="Monospace" font-size="14.00"> adms:status → IRI </text>
<text text-anchor="start" x="1022.75" y="-32.7" font-family="Monospace" font-size="14.00"> prov:hadPrimarySource → IRI </text>
<text text-anchor="start" x="1022.75" y="-13.2" font-family="Monospace" font-size="14.00"> nie:url : xsd:string </text>
</g>
<!-- FormData&#45;&gt;File -->
<g id="edge5" class="edge">
<title>FormData&#45;&gt;File</title>
<path fill="none" stroke="black" d="M872.72,-119.15C915.57,-118.88 961.47,-118.59 1004.08,-118.31"/>
<polygon fill="black" stroke="black" points="1003.92,-121.81 1013.9,-118.25 1003.88,-114.81 1003.92,-121.81"/>
<text text-anchor="middle" x="944.12" y="-124.45" font-family="Monospace" font-size="14.00">dct:hasPart</text>
</g>
</g>
</svg>
