<?xml version="1.0" encoding="UTF-8" standalone="no"?>
<!DOCTYPE svg PUBLIC "-//W3C//DTD SVG 1.1//EN"
 "http://www.w3.org/Graphics/SVG/1.1/DTD/svg11.dtd">
<!-- Generated by graphviz version 12.1.2 (0)
 -->
<!-- Title: SubmissionData Pages: 1 -->
<svg width="1888pt" height="331pt"
 viewBox="0.00 0.00 1888.00 331.00" xmlns="http://www.w3.org/2000/svg" xmlns:xlink="http://www.w3.org/1999/xlink">
<g id="graph0" class="graph" transform="scale(1 1) rotate(0) translate(4 327)">
<title>SubmissionData</title>
<polygon fill="white" stroke="none" points="-4,4 -4,-327 1884,-327 1884,4 -4,4"/>
<!-- Submission -->
<g id="node1" class="node">
<title>Submission</title>
<polygon fill="none" stroke="black" points="496.75,-319 4,-319 4,-131.5 496.75,-131.5 496.75,-319"/>
<polygon fill="none" stroke="black" points="500.75,-323 0,-323 0,-127.5 500.75,-127.5 500.75,-323"/>
<polygon fill="none" stroke="black" points="4,-293.5 4,-319 496.75,-319 496.75,-293.5 4,-293.5"/>
<text text-anchor="start" x="192.62" y="-303.7" font-family="Monospace" font-weight="bold" font-size="14.00">mob:Submission</text>
<polygon fill="none" stroke="black" points="4,-131.5 4,-293.5 496.75,-293.5 496.75,-131.5 4,-131.5"/>
<text text-anchor="start" x="7" y="-277.2" font-family="Monospace" font-size="14.00"> core:uuid : xsd:string </text>
<text text-anchor="start" x="7" y="-257.7" font-family="Monospace" font-size="14.00"> dct:created : xsd:dateTime </text>
<text text-anchor="start" x="7" y="-238.2" font-family="Monospace" font-size="14.00"> nmo:sentDate : xsd:dateTime </text>
<text text-anchor="start" x="7" y="-218.7" font-family="Monospace" font-size="14.00"> dct:modified : xsd:dateTime </text>
<text text-anchor="start" x="7" y="-199.2" font-family="Monospace" font-size="14.00"> pav:createdBy → besluit:Bestuurseenheid </text>
<text text-anchor="start" x="7" y="-179.7" font-family="Monospace" font-size="14.00"> pav:providedBy → ext:Vendor </text>
<text text-anchor="start" x="7" y="-160.2" font-family="Monospace" font-size="14.00"> adms:status → skos:Concept / ext:SubmissionDocumentStatus </text>
<text text-anchor="start" x="7" y="-140.7" font-family="Monospace" font-size="14.00"> prov:atLocation → IRI </text>
</g>
<!-- SubmissionDocument -->
<g id="node2" class="node">
<title>SubmissionDocument</title>
<polygon fill="none" stroke="black" points="1417.62,-307.75 1155.88,-307.75 1155.88,-256.75 1417.62,-256.75 1417.62,-307.75"/>
<polygon fill="none" stroke="black" points="1421.62,-311.75 1151.88,-311.75 1151.88,-252.75 1421.62,-252.75 1421.62,-311.75"/>
<polygon fill="none" stroke="black" points="1155.88,-282.25 1155.88,-307.75 1417.62,-307.75 1417.62,-282.25 1155.88,-282.25"/>
<text text-anchor="start" x="1196" y="-292.45" font-family="Monospace" font-weight="bold" font-size="14.00">ext:SubmissionDocument</text>
<polygon fill="none" stroke="black" points="1155.88,-256.75 1155.88,-282.25 1417.62,-282.25 1417.62,-256.75 1155.88,-256.75"/>
<text text-anchor="start" x="1158.88" y="-266.95" font-family="Monospace" font-size="14.00"> </text>
<text text-anchor="start" x="1167.12" y="-266.95" font-family="Monospace" font-style="italic" font-size="14.00">No extra properties available</text>
<text text-anchor="start" x="1406.38" y="-266.95" font-family="Monospace" font-size="14.00"> </text>
</g>
<!-- Submission&#45;&gt;SubmissionDocument -->
<g id="edge1" class="edge">
<title>Submission&#45;&gt;SubmissionDocument</title>
<path fill="none" stroke="black" d="M501.22,-245.19C551.22,-248.83 603.39,-252.38 652.25,-255.25 819.46,-265.07 1011.7,-272.75 1140.14,-277.37"/>
<polygon fill="black" stroke="black" points="1139.97,-280.87 1150.09,-277.73 1140.22,-273.87 1139.97,-280.87"/>
<text text-anchor="middle" x="824.25" y="-277.72" font-family="Monospace" font-size="14.00">dct:subject</text>
</g>
<!-- FormData -->
<g id="node4" class="node">
<title>FormData</title>
<polygon fill="none" stroke="black" points="992.25,-242.5 656.25,-242.5 656.25,-94 992.25,-94 992.25,-242.5"/>
<polygon fill="none" stroke="black" points="996.25,-246.5 652.25,-246.5 652.25,-90 996.25,-90 996.25,-246.5"/>
<polygon fill="none" stroke="black" points="656.25,-217 656.25,-242.5 992.25,-242.5 992.25,-217 656.25,-217"/>
<text text-anchor="start" x="778.88" y="-227.2" font-family="Monospace" font-weight="bold" font-size="14.00">am:FormData</text>
<polygon fill="none" stroke="black" points="656.25,-94 656.25,-217 992.25,-217 992.25,-94 656.25,-94"/>
<text text-anchor="start" x="659.25" y="-200.7" font-family="Monospace" font-size="14.00"> core:uuid : xsd:string </text>
<text text-anchor="start" x="659.25" y="-181.2" font-family="Monospace" font-size="14.00"> dct:type → skos:Concept </text>
<text text-anchor="start" x="659.25" y="-161.7" font-family="Monospace" font-size="14.00"> fd:submissionType → skos:Concept </text>
<text text-anchor="start" x="659.25" y="-142.2" font-family="Monospace" font-size="14.00"> fd:sessionStartedAtTime : xsd:dateTime </text>
<text text-anchor="start" x="659.25" y="-122.7" font-family="Monospace" font-size="14.00"> le:financialYear : xsd:string </text>
<text text-anchor="start" x="659.25" y="-103.2" font-family="Monospace" font-size="14.00"> eli:passed_by → besluit:Bestuursorgaan </text>
</g>
<!-- Submission&#45;&gt;FormData -->
<g id="edge2" class="edge">
<title>Submission&#45;&gt;FormData</title>
<path fill="none" stroke="black" d="M500.96,-200.37C547.96,-195.69 596.29,-190.87 640.76,-186.44"/>
<polygon fill="black" stroke="black" points="640.87,-189.95 650.47,-185.47 640.18,-182.98 640.87,-189.95"/>
<text text-anchor="middle" x="576.5" y="-204.66" font-family="Monospace" font-size="14.00">prov:generated</text>
</g>
<!-- Artikel -->
<g id="node3" class="node">
<title>Artikel</title>
<polygon fill="none" stroke="black" points="1876,-316.5 1589.5,-316.5 1589.5,-246 1876,-246 1876,-316.5"/>
<polygon fill="none" stroke="black" points="1880,-320.5 1585.5,-320.5 1585.5,-242 1880,-242 1880,-320.5"/>
<polygon fill="none" stroke="black" points="1589.5,-291 1589.5,-316.5 1876,-316.5 1876,-291 1589.5,-291"/>
<text text-anchor="start" x="1670.88" y="-301.2" font-family="Monospace" font-weight="bold" font-size="14.00">besluit:Artikel</text>
<polygon fill="none" stroke="black" points="1589.5,-246 1589.5,-291 1876,-291 1876,-246 1589.5,-246"/>
<text text-anchor="start" x="1592.5" y="-274.7" font-family="Monospace" font-size="14.00"> core:uuid : xsd:string </text>
<text text-anchor="start" x="1592.5" y="-255.2" font-family="Monospace" font-size="14.00"> eli:type_document → skos:Concept </text>
</g>
<!-- SubmissionDocument&#45;&gt;Artikel -->
<g id="edge3" class="edge">
<title>SubmissionDocument&#45;&gt;Artikel</title>
<path fill="none" stroke="black" d="M1421.87,-281.95C1469.81,-281.84 1524.27,-281.72 1574.02,-281.61"/>
<polygon fill="black" stroke="black" points="1573.72,-285.11 1583.71,-281.58 1573.7,-278.11 1573.72,-285.11"/>
<text text-anchor="middle" x="1513.88" y="-288.04" font-family="Monospace" font-size="14.00">eli:has_part</text>
</g>
<!-- Artikel&#45;&gt;SubmissionDocument -->
<g id="edge4" class="edge">
<title>Artikel&#45;&gt;SubmissionDocument</title>
<path fill="none" stroke="black" d="M1585,-259.2C1579.1,-258.65 1573.25,-258.16 1567.5,-257.75 1519.95,-254.37 1507.8,-254.39 1460.25,-257.75 1451.35,-258.38 1442.21,-259.19 1433,-260.13"/>
<polygon fill="black" stroke="black" points="1432.82,-256.63 1423.25,-261.17 1433.57,-263.59 1432.82,-256.63"/>
<text text-anchor="middle" x="1513.88" y="-263.95" font-family="Monospace" font-size="14.00">eli:refers_to</text>
</g>
<!-- FormData&#45;&gt;SubmissionDocument -->
<g id="edge6" class="edge">
<title>FormData&#45;&gt;SubmissionDocument</title>
<path fill="none" stroke="black" d="M996.72,-210.7C1048.67,-223.56 1104.89,-237.48 1153.82,-249.59"/>
<polygon fill="black" stroke="black" points="1152.77,-252.94 1163.32,-251.94 1154.46,-246.14 1152.77,-252.94"/>
<text text-anchor="middle" x="1063.75" y="-245.01" font-family="Monospace" font-size="14.00">dct:relation</text>
</g>
<!-- File -->
<g id="node5" class="node">
<title>File</title>
<polygon fill="none" stroke="black" points="1438.25,-230.5 1135.25,-230.5 1135.25,-4 1438.25,-4 1438.25,-230.5"/>
<polygon fill="none" stroke="black" points="1442.25,-234.5 1131.25,-234.5 1131.25,0 1442.25,0 1442.25,-234.5"/>
<polygon fill="none" stroke="black" points="1135.25,-205 1135.25,-230.5 1438.25,-230.5 1438.25,-205 1135.25,-205"/>
<text text-anchor="start" x="1212.5" y="-215.2" font-family="Monospace" font-weight="bold" font-size="14.00">nfo:FileDataObject</text>
<polygon fill="none" stroke="black" points="1135.25,-4 1135.25,-205 1438.25,-205 1438.25,-4 1135.25,-4"/>
<text text-anchor="start" x="1138.25" y="-188.7" font-family="Monospace" font-size="14.00"> core:uuid : xsd:string </text>
<text text-anchor="start" x="1138.25" y="-169.2" font-family="Monospace" font-size="14.00"> dct:created : xsd:dateTime </text>
<text text-anchor="start" x="1138.25" y="-149.7" font-family="Monospace" font-size="14.00"> dct:modified : xsd:dateTime </text>
<text text-anchor="start" x="1138.25" y="-130.2" font-family="Monospace" font-size="14.00"> nfo:fileSize : xsd:string </text>
<text text-anchor="start" x="1138.25" y="-110.7" font-family="Monospace" font-size="14.00"> dbpedia:fileExtension : xsd:string </text>
<text text-anchor="start" x="1138.25" y="-91.2" font-family="Monospace" font-size="14.00"> dct:format : xsd:string </text>
<text text-anchor="start" x="1138.25" y="-71.7" font-family="Monospace" font-size="14.00"> nfo:fileName : xsd:string </text>
<text text-anchor="start" x="1138.25" y="-52.2" font-family="Monospace" font-size="14.00"> adms:status → xsd:anyURI </text>
<text text-anchor="start" x="1138.25" y="-32.7" font-family="Monospace" font-size="14.00"> prov:hadPrimarySource : xsd:string </text>
<text text-anchor="start" x="1138.25" y="-13.2" font-family="Monospace" font-size="14.00"> nie:url : xsd:string </text>
</g>
<!-- FormData&#45;&gt;File -->
<g id="edge5" class="edge">
<title>FormData&#45;&gt;File</title>
<path fill="none" stroke="black" d="M996.72,-149.26C1036.93,-144.81 1079.69,-140.07 1119.66,-135.64"/>
<polygon fill="black" stroke="black" points="1119.79,-139.15 1129.34,-134.57 1119.02,-132.19 1119.79,-139.15"/>
<text text-anchor="middle" x="1063.75" y="-153.52" font-family="Monospace" font-size="14.00">dct:hasPart</text>
</g>
</g>
</svg>
