<?xml version="1.0" encoding="UTF-8" standalone="no"?>
<!DOCTYPE svg PUBLIC "-//W3C//DTD SVG 1.1//EN"
 "http://www.w3.org/Graphics/SVG/1.1/DTD/svg11.dtd">
<!-- Generated by graphviz version 12.1.2 (0)
 -->
<!-- Title: SubmissionData Pages: 1 -->
<svg width="385pt" height="223pt"
 viewBox="0.00 0.00 385.00 223.00" xmlns="http://www.w3.org/2000/svg" xmlns:xlink="http://www.w3.org/1999/xlink">
<g id="graph0" class="graph" transform="scale(1 1) rotate(0) translate(4 219)">
<title>SubmissionData</title>
<polygon fill="white" stroke="none" points="-4,4 -4,-219 381,-219 381,4 -4,4"/>
<!-- Submission -->
<g id="node1" class="node">
<title>Submission</title>
<polygon fill="none" stroke="black" points="373,-211 4,-211 4,-4 373,-4 373,-211"/>
<polygon fill="none" stroke="black" points="377,-215 0,-215 0,0 377,0 377,-215"/>
<polygon fill="none" stroke="black" points="4,-185.5 4,-211 373,-211 373,-185.5 4,-185.5"/>
<text text-anchor="start" x="130.75" y="-195.7" font-family="Monospace" font-weight="bold" font-size="14.00">mob:Submission</text>
<polygon fill="none" stroke="black" points="4,-4 4,-185.5 373,-185.5 373,-4 4,-4"/>
<text text-anchor="start" x="7" y="-169.2" font-family="Monospace" font-size="14.00"> core:uuid : xsd:string </text>
<text text-anchor="start" x="7" y="-149.7" font-family="Monospace" font-size="14.00"> dct:created : xsd:dateTime </text>
<text text-anchor="start" x="7" y="-130.2" font-family="Monospace" font-size="14.00"> nmo:sentDate : xsd:dateTime </text>
<text text-anchor="start" x="7" y="-110.7" font-family="Monospace" font-size="14.00"> dct:modified : xsd:dateTime </text>
<text text-anchor="start" x="7" y="-91.2" font-family="Monospace" font-size="14.00"> pav:createdBy → besluit:Bestuurseenheid </text>
<text text-anchor="start" x="7" y="-71.7" font-family="Monospace" font-size="14.00"> pav:providedBy → ext:Vendor </text>
<text text-anchor="start" x="7" y="-52.2" font-family="Monospace" font-size="14.00"> adms:status → skos:Concept </text>
<text text-anchor="start" x="7" y="-32.7" font-family="Monospace" font-size="14.00"> adms:status → ext:SubmissionDocumentStatus </text>
<text text-anchor="start" x="7" y="-13.2" font-family="Monospace" font-size="14.00"> prov:atLocation → IRI </text>
</g>
</g>
</svg>
