<?xml version="1.0" encoding="UTF-8" standalone="no"?>
<!DOCTYPE svg PUBLIC "-//W3C//DTD SVG 1.1//EN"
 "http://www.w3.org/Graphics/SVG/1.1/DTD/svg11.dtd">
<!-- Generated by graphviz version 14.1.5 (0)
 -->
<!-- Title: SubmissionData Pages: 1 -->
<svg width="509pt" height="262pt"
 viewBox="0.00 0.00 509.00 262.00" xmlns="http://www.w3.org/2000/svg" xmlns:xlink="http://www.w3.org/1999/xlink">
<g id="graph0" class="graph" transform="scale(1 1) rotate(0) translate(4 258)">
<title>SubmissionData</title>
<polygon fill="white" stroke="none" points="-4,4 -4,-258 504.75,-258 504.75,4 -4,4"/>
<!-- Submission -->
<g id="node1" class="node">
<title>Submission</title>
<polygon fill="none" stroke="black" points="496.75,-250 4,-250 4,-4 496.75,-4 496.75,-250"/>
<polygon fill="none" stroke="black" points="500.75,-254 0,-254 0,0 500.75,0 500.75,-254"/>
<polygon fill="none" stroke="black" points="4,-224.5 4,-250 496.75,-250 496.75,-224.5 4,-224.5"/>
<text xml:space="preserve" text-anchor="start" x="192.63" y="-234.7" font-family="Monospace" font-weight="bold" font-size="14.00">meb:Submission</text>
<polygon fill="none" stroke="black" points="4,-4 4,-224.5 496.75,-224.5 496.75,-4 4,-4"/>
<text xml:space="preserve" text-anchor="start" x="7" y="-206.5" font-family="Monospace" font-size="14.00"> core:uuid : xsd:string </text>
<text xml:space="preserve" text-anchor="start" x="7" y="-187" font-family="Monospace" font-size="14.00"> dct:created : xsd:dateTime </text>
<text xml:space="preserve" text-anchor="start" x="7" y="-167.5" font-family="Monospace" font-size="14.00"> nmo:sentDate : xsd:dateTime </text>
<text xml:space="preserve" text-anchor="start" x="7" y="-148" font-family="Monospace" font-size="14.00"> dct:modified : xsd:dateTime </text>
<text xml:space="preserve" text-anchor="start" x="7" y="-128.5" font-family="Monospace" font-size="14.00"> pav:createdBy → besluit:Bestuurseenheid </text>
<text xml:space="preserve" text-anchor="start" x="7" y="-109" font-family="Monospace" font-size="14.00"> pav:providedBy → ext:Vendor </text>
<text xml:space="preserve" text-anchor="start" x="7" y="-89.5" font-family="Monospace" font-size="14.00"> adms:status → skos:Concept / ext:SubmissionDocumentStatus </text>
<text xml:space="preserve" text-anchor="start" x="7" y="-70" font-family="Monospace" font-size="14.00"> prov:generated → am:FormData </text>
<text xml:space="preserve" text-anchor="start" x="7" y="-50.5" font-family="Monospace" font-size="14.00"> dct:subject → ext:SubmissionDocument / foaf:Document </text>
<text xml:space="preserve" text-anchor="start" x="7" y="-31" font-family="Monospace" font-size="14.00"> prov:atLocation : IRI </text>
<text xml:space="preserve" text-anchor="start" x="7" y="-11.5" font-family="Monospace" font-size="14.00"> </text>
</g>
</g>
</svg>
