<?xml version="1.0" encoding="UTF-8" standalone="no"?>
<!DOCTYPE svg PUBLIC "-//W3C//DTD SVG 1.1//EN"
 "http://www.w3.org/Graphics/SVG/1.1/DTD/svg11.dtd">
<!-- Generated by graphviz version 12.1.2 (0)
 -->
<!-- Title: SubmissionData Pages: 1 -->
<svg width="509pt" height="262pt"
 viewBox="0.00 0.00 508.75 262.00" xmlns="http://www.w3.org/2000/svg" xmlns:xlink="http://www.w3.org/1999/xlink">
<g id="graph0" class="graph" transform="scale(1 1) rotate(0) translate(4 258)">
<title>SubmissionData</title>
<polygon fill="white" stroke="none" points="-4,4 -4,-258 504.75,-258 504.75,4 -4,4"/>
<!-- Submission -->
<g id="node1" class="node">
<title>Submission</title>
<polygon fill="none" stroke="black" points="496.75,-250 4,-250 4,-4 496.75,-4 496.75,-250"/>
<polygon fill="none" stroke="black" points="500.75,-254 0,-254 0,0 500.75,0 500.75,-254"/>
<polygon fill="none" stroke="black" points="4,-224.5 4,-250 496.75,-250 496.75,-224.5 4,-224.5"/>
<text text-anchor="start" x="192.63" y="-234.7" font-family="Monospace" font-weight="bold" font-size="14.00">mob:Submission</text>
<polygon fill="none" stroke="black" points="4,-4 4,-224.5 496.75,-224.5 496.75,-4 4,-4"/>
<text text-anchor="start" x="7" y="-208.2" font-family="Monospace" font-size="14.00"> core:uuid : xsd:string </text>
<text text-anchor="start" x="7" y="-188.7" font-family="Monospace" font-size="14.00"> dct:created : xsd:dateTime </text>
<text text-anchor="start" x="7" y="-169.2" font-family="Monospace" font-size="14.00"> nmo:sentDate : xsd:dateTime </text>
<text text-anchor="start" x="7" y="-149.7" font-family="Monospace" font-size="14.00"> dct:modified : xsd:dateTime </text>
<text text-anchor="start" x="7" y="-130.2" font-family="Monospace" font-size="14.00"> pav:createdBy → besluit:Bestuurseenheid </text>
<text text-anchor="start" x="7" y="-110.7" font-family="Monospace" font-size="14.00"> pav:providedBy → ext:Vendor </text>
<text text-anchor="start" x="7" y="-91.2" font-family="Monospace" font-size="14.00"> adms:status → skos:Concept / ext:SubmissionDocumentStatus </text>
<text text-anchor="start" x="7" y="-71.7" font-family="Monospace" font-size="14.00"> prov:generated → am:FormData </text>
<text text-anchor="start" x="7" y="-52.2" font-family="Monospace" font-size="14.00"> dct:subject → ext:SubmissionDocument / foaf:Document </text>
<text text-anchor="start" x="7" y="-32.7" font-family="Monospace" font-size="14.00"> prov:atLocation → IRI </text>
<text text-anchor="start" x="7" y="-13.2" font-family="Monospace" font-size="14.00"> nie:hasPart → nfo:FileDataObject </text>
</g>
</g>
</svg>
