<svg width="297mm" height="210mm" version="1.1" viewBox="0 0 297 210" xmlns="http://www.w3.org/2000/svg" xmlns:xlink="http://www.w3.org/1999/xlink"><defs><linearGradient id="a"><stop stop-color="#aade87" offset="0"/><stop stop-color="#aade87" stop-opacity="0" offset="1"/></linearGradient><marker id="j" overflow="visible" markerHeight="6.155385" markerWidth="5.3244081" orient="auto-start-reverse" preserveAspectRatio="xMidYMid" refX="3" viewBox="0 0 5.3244081 6.1553851"><path transform="scale(.5)" d="m5.77 0-8.65 5v-10z" fill="context-stroke" fill-rule="evenodd" stroke="context-stroke" stroke-width="1pt"/></marker><marker id="i" overflow="visible" markerHeight="6.155385" markerWidth="5.3244081" orient="auto-start-reverse" preserveAspectRatio="xMidYMid" refX="3" viewBox="0 0 5.3244081 6.1553851"><path transform="scale(.5)" d="m5.77 0-8.65 5v-10z" fill="context-stroke" fill-rule="evenodd" stroke="context-stroke" stroke-width="1pt"/></marker><linearGradient id="c" x1="67.44" x2="207.1" y1="101.1" y2="101.1" gradientUnits="userSpaceOnUse" xlink:href="#a"/><marker id="g" overflow="visible" markerHeight="6.155385" markerWidth="5.3244081" orient="auto-start-reverse" preserveAspectRatio="xMidYMid" refX="3" viewBox="0 0 5.3244081 6.1553851"><path transform="scale(.5)" d="m5.77 0-8.65 5v-10z" fill="context-stroke" fill-rule="evenodd" stroke="context-stroke" stroke-width="1pt"/></marker><marker id="f" overflow="visible" markerHeight="6.155385" markerWidth="5.3244081" orient="auto-start-reverse" preserveAspectRatio="xMidYMid" refX="3" viewBox="0 0 5.3244081 6.1553851"><path transform="scale(.5)" d="m5.77 0-8.65 5v-10z" fill="context-stroke" fill-rule="evenodd" stroke="context-stroke" stroke-width="1pt"/></marker><marker id="h" overflow="visible" markerHeight="6.155385" markerWidth="5.3244081" orient="auto-start-reverse" preserveAspectRatio="xMidYMid" refX="3" viewBox="0 0 5.3244081 6.1553851"><path transform="scale(.5)" d="m5.77 0-8.65 5v-10z" fill="context-stroke" fill-rule="evenodd" stroke="context-stroke" stroke-width="1pt"/></marker><linearGradient id="b" x1="67.44" x2="207.1" y1="101.1" y2="101.1" gradientTransform="translate(83 8.822)" gradientUnits="userSpaceOnUse" xlink:href="#a"/><marker id="e" overflow="visible" markerHeight="6.155385" markerWidth="5.3244081" orient="auto-start-reverse" preserveAspectRatio="xMidYMid" refX="3" viewBox="0 0 5.3244081 6.1553851"><path transform="scale(.5)" d="m5.77 0-8.65 5v-10z" fill="context-stroke" fill-rule="evenodd" stroke="context-stroke" stroke-width="1pt"/></marker><marker id="d" overflow="visible" markerHeight="6.155385" markerWidth="5.3244081" orient="auto-start-reverse" preserveAspectRatio="xMidYMid" refX="3" viewBox="0 0 5.3244081 6.1553851"><path transform="scale(.5)" d="m5.77 0-8.65 5v-10z" fill="context-stroke" fill-rule="evenodd" stroke="context-stroke" stroke-width="1pt"/></marker></defs><path d="m75.34 41.86a24.5 24.5 0 0 1-24.5 24.5 24.5 24.5 0 0 1-24.5-24.5 24.5 24.5 0 0 1 24.5-24.5 24.5 24.5 0 0 1 24.5 24.5z" fill="#acf" stroke="#000"/><g transform="matrix(.2646 0 0 .2646 -2.769 -48.49)" style="shape-inside:url(#rect7802);white-space:pre" aria-label="meb:Submission"><path d="m130.5 339.3q0.3099-0.6562 0.7838-0.9662 0.4831-0.319 1.158-0.319 1.23 0 1.732 0.957 0.5104 0.9479 0.5104 3.582v5.915h-1.531v-5.842q0-2.16-0.2461-2.68-0.237-0.5286-0.875-0.5286-0.7292 0-1.003 0.5651-0.2643 0.556-0.2643 2.643v5.842h-1.531v-5.842q0-2.188-0.2643-2.698-0.2552-0.5104-0.9297-0.5104-0.6654 0-0.9297 0.5651-0.2552 0.556-0.2552 2.643v5.842h-1.522v-10.21h1.522v0.875q0.3008-0.5469 0.7474-0.8294 0.4557-0.2917 1.03-0.2917 0.6927 0 1.148 0.319 0.4648 0.319 0.7201 0.9662z"/><path d="m145.7 342.9v0.8203h-7.264v0.0547q0 1.668 0.8659 2.579 0.875 0.9115 2.461 0.9115 0.8021 0 1.677-0.2552 0.875-0.2552 1.868-0.7747v1.668q-0.957 0.3919-1.85 0.5833-0.8841 0.2005-1.714 0.2005-2.379 0-3.719-1.422-1.34-1.431-1.34-3.938 0-2.443 1.313-3.901 1.312-1.458 3.5-1.458 1.951 0 3.072 1.322 1.13 1.322 1.13 3.609zm-1.677-0.4922q-0.0365-1.477-0.7018-2.242-0.6562-0.7747-1.896-0.7747-1.212 0-1.996 0.8021-0.7839 0.8021-0.9297 2.224z"/><path d="m155.1 343.4q0-1.951-0.6198-2.944t-1.832-0.9935q-1.221 0-1.85 1.003-0.6289 0.9935-0.6289 2.935 0 1.932 0.6289 2.935 0.6289 1.003 1.85 1.003 1.212 0 1.832-0.9935t0.6198-2.944zm-4.931-3.81q0.401-0.7474 1.103-1.148 0.7109-0.401 1.641-0.401 1.841 0 2.898 1.422 1.057 1.413 1.057 3.901 0 2.525-1.066 3.965-1.057 1.431-2.908 1.431-0.9115 0-1.613-0.3919-0.6927-0.401-1.112-1.158v1.285h-1.677v-14.18h1.677z"/><path d="m162.5 338.8h2.297v2.762h-2.297zm0 6.909h2.297v2.78h-2.297z"/><path d="m178.5 335.3v1.868q-0.8386-0.5378-1.686-0.8112-0.8385-0.2734-1.695-0.2734-1.303 0-2.06 0.6107-0.7565 0.6016-0.7565 1.632 0 0.9024 0.4922 1.376 0.5013 0.474 1.859 0.793l0.9662 0.2188q1.914 0.4466 2.789 1.404 0.875 0.957 0.875 2.607 0 1.941-1.203 2.962-1.203 1.021-3.5 1.021-0.957 0-1.923-0.2096-0.9662-0.2005-1.941-0.6107v-1.96q1.048 0.6654 1.978 0.9753 0.9388 0.3099 1.887 0.3099 1.395 0 2.169-0.6198 0.7747-0.6289 0.7747-1.75 0-1.021-0.5378-1.559-0.5286-0.5378-1.85-0.8294l-0.9844-0.2279q-1.896-0.4284-2.753-1.294-0.8568-0.8659-0.8568-2.324 0-1.823 1.221-2.917 1.23-1.103 3.263-1.103 0.7839 0 1.65 0.1823 0.8659 0.1732 1.823 0.5286z"/><path d="m182.3 344.6v-6.326h1.677v6.326q0 1.376 0.4831 2.023 0.4922 0.6471 1.513 0.6471 1.185 0 1.814-0.8294 0.6289-0.8386 0.6289-2.397v-5.77h1.686v10.19h-1.686v-1.531q-0.4466 0.8841-1.221 1.34-0.7656 0.4557-1.796 0.4557-1.568 0-2.333-1.021-0.7656-1.03-0.7656-3.108z"/><path d="m200.1 343.4q0-1.951-0.6198-2.944-0.6198-0.9935-1.832-0.9935-1.221 0-1.85 1.003-0.6289 0.9935-0.6289 2.935 0 1.932 0.6289 2.935 0.6289 1.003 1.85 1.003 1.212 0 1.832-0.9935 0.6198-0.9935 0.6198-2.944zm-4.931-3.81q0.401-0.7474 1.103-1.148 0.7109-0.401 1.641-0.401 1.841 0 2.898 1.422 1.057 1.413 1.057 3.901 0 2.525-1.066 3.965-1.057 1.431-2.908 1.431-0.9115 0-1.613-0.3919-0.6927-0.401-1.112-1.158v1.285h-1.677v-14.18h1.677z"/><path d="m209.1 339.3q0.3099-0.6562 0.7839-0.9662 0.4831-0.319 1.158-0.319 1.23 0 1.732 0.957 0.5104 0.9479 0.5104 3.582v5.915h-1.531v-5.842q0-2.16-0.2461-2.68-0.237-0.5286-0.875-0.5286-0.7292 0-1.003 0.5651-0.2643 0.556-0.2643 2.643v5.842h-1.531v-5.842q0-2.188-0.2643-2.698-0.2552-0.5104-0.9297-0.5104-0.6654 0-0.9297 0.5651-0.2552 0.556-0.2552 2.643v5.842h-1.522v-10.21h1.522v0.875q0.3008-0.5469 0.7474-0.8294 0.4557-0.2917 1.03-0.2917 0.6927 0 1.148 0.319 0.4648 0.319 0.72 0.9662z"/><path d="m216.5 338.3h4.293v8.905h3.327v1.303h-8.331v-1.303h3.327v-7.602h-2.616zm2.616-3.974h1.677v2.124h-1.677z"/><path d="m234.3 338.6v1.641q-0.7201-0.4193-1.449-0.6289-0.7292-0.2096-1.486-0.2096-1.139 0-1.704 0.3737-0.556 0.3646-0.556 1.121 0 0.6836 0.4193 1.021 0.4193 0.3372 2.087 0.6562l0.6745 0.1276q1.249 0.237 1.887 0.9479 0.6471 0.7109 0.6471 1.85 0 1.513-1.076 2.37-1.076 0.8477-2.99 0.8477-0.7565 0-1.586-0.1641-0.8294-0.155-1.796-0.474v-1.732q0.9388 0.4831 1.796 0.7292 0.8568 0.237 1.622 0.237 1.112 0 1.723-0.4466 0.6107-0.4557 0.6107-1.267 0-1.167-2.233-1.613l-0.0729-0.0182-0.6289-0.1276q-1.449-0.2826-2.115-0.9479-0.6654-0.6745-0.6654-1.832 0-1.467 0.9935-2.26 0.9935-0.8021 2.835-0.8021 0.8203 0 1.577 0.155 0.7565 0.1458 1.486 0.4466z"/><path d="m245.5 338.6v1.641q-0.72-0.4193-1.449-0.6289-0.7292-0.2096-1.486-0.2096-1.139 0-1.704 0.3737-0.556 0.3646-0.556 1.121 0 0.6836 0.4193 1.021t2.087 0.6562l0.6745 0.1276q1.249 0.237 1.887 0.9479 0.6471 0.7109 0.6471 1.85 0 1.513-1.076 2.37-1.076 0.8477-2.99 0.8477-0.7565 0-1.586-0.1641-0.8294-0.155-1.796-0.474v-1.732q0.9388 0.4831 1.796 0.7292 0.8568 0.237 1.622 0.237 1.112 0 1.723-0.4466 0.6107-0.4557 0.6107-1.267 0-1.167-2.233-1.613l-0.0729-0.0182-0.6289-0.1276q-1.449-0.2826-2.115-0.9479-0.6654-0.6745-0.6654-1.832 0-1.467 0.9935-2.26 0.9935-0.8021 2.835-0.8021 0.8203 0 1.577 0.155 0.7565 0.1458 1.486 0.4466z"/><path d="m250.2 338.3h4.293v8.905h3.327v1.303h-8.331v-1.303h3.327v-7.602h-2.616zm2.616-3.974h1.677v2.124h-1.677z"/><path d="m264.8 339.4q-1.276 0-1.932 0.9935t-0.6562 2.944q0 1.941 0.6562 2.944 0.6562 0.9935 1.932 0.9935 1.285 0 1.941-0.9935 0.6562-1.003 0.6562-2.944 0-1.951-0.6562-2.944t-1.941-0.9935zm0-1.422q2.124 0 3.245 1.376 1.13 1.376 1.13 3.983 0 2.616-1.121 3.992-1.121 1.367-3.254 1.367-2.124 0-3.245-1.367-1.121-1.376-1.121-3.992 0-2.607 1.121-3.983 1.121-1.376 3.245-1.376z"/><path d="m280 342.1v6.326h-1.686v-6.326q0-1.376-0.4831-2.023-0.4831-0.6471-1.513-0.6471-1.176 0-1.814 0.8385-0.6289 0.8294-0.6289 2.388v5.77h-1.677v-10.21h1.677v1.531q0.4466-0.875 1.212-1.322 0.7656-0.4557 1.814-0.4557 1.559 0 2.324 1.03 0.7748 1.021 0.7748 3.099z"/></g><path d="m269.5 111.3a24.5 24.5 0 0 1-24.5 24.5 24.5 24.5 0 0 1-24.5-24.5 24.5 24.5 0 0 1 24.5-24.5 24.5 24.5 0 0 1 24.5 24.5z" fill="#acf" stroke="#000"/><g transform="matrix(.2646 0 0 .2646 195.8 20.85)" style="shape-inside:url(#rect7802-8);white-space:pre" aria-label="am:FormData"><path d="m130.7 343.3h-0.556q-1.467 0-2.215 0.5195-0.7383 0.5104-0.7383 1.531 0 0.9206 0.556 1.431 0.556 0.5104 1.54 0.5104 1.385 0 2.178-0.957 0.793-0.9662 0.8021-2.661v-0.3737zm3.254-0.6927v5.824h-1.686v-1.513q-0.5378 0.9115-1.358 1.349-0.8112 0.4284-1.978 0.4284-1.559 0-2.488-0.875-0.9297-0.8841-0.9297-2.361 0-1.704 1.139-2.589 1.148-0.8841 3.363-0.8841h2.251v-0.2643q-9e-3 -1.221-0.6198-1.768-0.6107-0.556-1.951-0.556-0.8568 0-1.732 0.2461-0.875 0.2461-1.704 0.7201v-1.677q0.9297-0.3555 1.777-0.5286 0.8568-0.1823 1.659-0.1823 1.267 0 2.16 0.3737 0.9023 0.3737 1.458 1.121 0.3464 0.4557 0.4922 1.13 0.1458 0.6654 0.1458 2.005z"/><path d="m141.7 339.3q0.3099-0.6562 0.7838-0.9662 0.4831-0.319 1.158-0.319 1.23 0 1.732 0.957 0.5104 0.9479 0.5104 3.582v5.915h-1.531v-5.842q0-2.16-0.2461-2.68-0.237-0.5286-0.875-0.5286-0.7292 0-1.003 0.5651-0.2643 0.556-0.2643 2.643v5.842h-1.531v-5.842q0-2.188-0.2643-2.698-0.2552-0.5104-0.9297-0.5104-0.6654 0-0.9297 0.5651-0.2552 0.556-0.2552 2.643v5.842h-1.522v-10.21h1.522v0.875q0.3008-0.5469 0.7474-0.8294 0.4557-0.2917 1.03-0.2917 0.6927 0 1.148 0.319 0.4648 0.319 0.7201 0.9662z"/><path d="m151.2 338.8h2.297v2.762h-2.297zm0 6.909h2.297v2.78h-2.297z"/><path d="m160.1 334.9h8.012v1.549h-6.161v4.01h5.587v1.549h-5.587v6.499h-1.85z"/><path d="m174.9 339.4q-1.276 0-1.932 0.9935t-0.6562 2.944q0 1.941 0.6562 2.944 0.6562 0.9935 1.932 0.9935 1.285 0 1.941-0.9935 0.6563-1.003 0.6563-2.944 0-1.951-0.6563-2.944-0.6562-0.9935-1.941-0.9935zm0-1.422q2.124 0 3.245 1.376 1.13 1.376 1.13 3.983 0 2.616-1.121 3.992-1.121 1.367-3.254 1.367-2.124 0-3.245-1.367-1.121-1.376-1.121-3.992 0-2.607 1.121-3.983 1.121-1.376 3.245-1.376z"/><path d="m191 340.4q-0.5378-0.4193-1.094-0.6107t-1.221-0.1914q-1.568 0-2.397 0.9844-0.8294 0.9844-0.8294 2.844v5.077h-1.686v-10.21h1.686v1.996q0.4193-1.085 1.285-1.659 0.875-0.5833 2.069-0.5833 0.6198 0 1.158 0.155 0.5378 0.155 1.03 0.4831z"/><path d="m197.9 339.3q0.3099-0.6562 0.7839-0.9662 0.4831-0.319 1.158-0.319 1.23 0 1.732 0.957 0.5104 0.9479 0.5104 3.582v5.915h-1.531v-5.842q0-2.16-0.2461-2.68-0.237-0.5286-0.875-0.5286-0.7292 0-1.003 0.5651-0.2643 0.556-0.2643 2.643v5.842h-1.531v-5.842q0-2.188-0.2643-2.698-0.2552-0.5104-0.9297-0.5104-0.6654 0-0.9297 0.5651-0.2552 0.556-0.2552 2.643v5.842h-1.522v-10.21h1.522v0.875q0.3008-0.5469 0.7474-0.8294 0.4557-0.2917 1.03-0.2917 0.6927 0 1.148 0.319 0.4648 0.319 0.72 0.9662z"/><path d="m206.9 346.9q2.324 0 3.245-1.139 0.9206-1.148 0.9206-4.138 0-3.017-0.9206-4.156-0.9115-1.148-3.245-1.148h-0.875v10.58zm0.0365-12.1q3.117 0 4.594 1.659 1.477 1.659 1.477 5.159 0 3.482-1.477 5.141-1.477 1.65-4.594 1.65h-2.762v-13.61z"/><path d="m220.6 343.3h-0.556q-1.467 0-2.215 0.5195-0.7383 0.5104-0.7383 1.531 0 0.9206 0.556 1.431 0.556 0.5104 1.54 0.5104 1.385 0 2.178-0.957 0.793-0.9662 0.8021-2.661v-0.3737zm3.254-0.6927v5.824h-1.686v-1.513q-0.5378 0.9115-1.358 1.349-0.8112 0.4284-1.978 0.4284-1.559 0-2.488-0.875-0.9297-0.8841-0.9297-2.361 0-1.704 1.139-2.589 1.148-0.8841 3.363-0.8841h2.251v-0.2643q-9e-3 -1.221-0.6198-1.768-0.6107-0.556-1.951-0.556-0.8568 0-1.732 0.2461-0.875 0.2461-1.704 0.7201v-1.677q0.9297-0.3555 1.777-0.5286 0.8568-0.1823 1.659-0.1823 1.267 0 2.16 0.3737 0.9023 0.3737 1.458 1.121 0.3464 0.4557 0.4922 1.13 0.1458 0.6654 0.1458 2.005z"/><path d="m231 335.4v2.898h3.81v1.303h-3.81v5.542q0 1.13 0.4284 1.577 0.4284 0.4466 1.495 0.4466h1.887v1.34h-2.051q-1.887 0-2.661-0.7565-0.7747-0.7565-0.7747-2.607v-5.542h-2.725v-1.303h2.725v-2.898z"/><path d="m243.1 343.3h-0.556q-1.467 0-2.215 0.5195-0.7383 0.5104-0.7383 1.531 0 0.9206 0.556 1.431 0.556 0.5104 1.54 0.5104 1.385 0 2.178-0.957 0.793-0.9662 0.8021-2.661v-0.3737zm3.254-0.6927v5.824h-1.686v-1.513q-0.5378 0.9115-1.358 1.349-0.8112 0.4284-1.978 0.4284-1.559 0-2.488-0.875-0.9297-0.8841-0.9297-2.361 0-1.704 1.139-2.589 1.148-0.8841 3.363-0.8841h2.251v-0.2643q-9e-3 -1.221-0.6198-1.768-0.6107-0.556-1.951-0.556-0.8568 0-1.732 0.2461-0.875 0.2461-1.704 0.7201v-1.677q0.9297-0.3555 1.777-0.5286 0.8568-0.1823 1.659-0.1823 1.267 0 2.16 0.3737 0.9024 0.3737 1.458 1.121 0.3464 0.4557 0.4922 1.13 0.1458 0.6654 0.1458 2.005z"/></g><path d="m152.7 173.5a24.5 24.5 0 0 1-24.5 24.5 24.5 24.5 0 0 1-24.5-24.5 24.5 24.5 0 0 1 24.5-24.5 24.5 24.5 0 0 1 24.5 24.5z" fill="#acf" stroke="#000"/><g transform="matrix(.2646 0 0 .2646 80.43 83.1)" style="shape-inside:url(#rect7802-8-0);white-space:pre" aria-label="ext:Vendor"><path d="m134.4 342.9v0.8203h-7.264v0.0547q0 1.668 0.8659 2.579 0.875 0.9115 2.461 0.9115 0.8021 0 1.677-0.2552 0.875-0.2552 1.868-0.7747v1.668q-0.957 0.3919-1.85 0.5833-0.8841 0.2005-1.714 0.2005-2.379 0-3.719-1.422-1.34-1.431-1.34-3.938 0-2.443 1.312-3.901 1.313-1.458 3.5-1.458 1.951 0 3.072 1.322 1.13 1.322 1.13 3.609zm-1.677-0.4922q-0.0365-1.477-0.7018-2.242-0.6562-0.7747-1.896-0.7747-1.212 0-1.996 0.8021-0.7839 0.8021-0.9297 2.224z"/><path d="m145.7 338.3-3.655 4.885 4.01 5.323h-1.941l-2.99-4.092-2.98 4.092h-1.941l4.01-5.323-3.655-4.885h1.859l2.707 3.691 2.689-3.691z"/><path d="m152.4 335.4v2.898h3.81v1.303h-3.81v5.542q0 1.13 0.4284 1.577 0.4284 0.4466 1.495 0.4466h1.887v1.34h-2.051q-1.887 0-2.661-0.7565-0.7747-0.7565-0.7747-2.607v-5.542h-2.725v-1.303h2.725v-2.898z"/><path d="m162.5 338.8h2.297v2.762h-2.297zm0 6.909h2.297v2.78h-2.297z"/><path d="m174.9 346.9 3.199-12.06h1.905l-3.983 13.61h-2.233l-3.983-13.61h1.905z"/><path d="m190.6 342.9v0.8203h-7.264v0.0547q0 1.668 0.8659 2.579 0.875 0.9115 2.461 0.9115 0.8021 0 1.677-0.2552 0.875-0.2552 1.868-0.7747v1.668q-0.957 0.3919-1.85 0.5833-0.8841 0.2005-1.714 0.2005-2.379 0-3.719-1.422-1.34-1.431-1.34-3.938 0-2.443 1.312-3.901 1.312-1.458 3.5-1.458 1.951 0 3.072 1.322 1.13 1.322 1.13 3.609zm-1.677-0.4922q-0.0365-1.477-0.7018-2.242-0.6563-0.7747-1.896-0.7747-1.212 0-1.996 0.8021-0.7838 0.8021-0.9297 2.224z"/><path d="m201.3 342.1v6.326h-1.686v-6.326q0-1.376-0.4831-2.023-0.4831-0.6471-1.513-0.6471-1.176 0-1.814 0.8385-0.6289 0.8294-0.6289 2.388v5.77h-1.677v-10.21h1.677v1.531q0.4466-0.875 1.212-1.322 0.7656-0.4557 1.814-0.4557 1.559 0 2.324 1.03 0.7747 1.021 0.7747 3.099z"/><path d="m210.8 339.6v-5.277h1.677v14.18h-1.677v-1.285q-0.4193 0.7565-1.121 1.158-0.6927 0.3919-1.604 0.3919-1.85 0-2.917-1.431-1.057-1.44-1.057-3.965 0-2.488 1.066-3.901 1.066-1.422 2.908-1.422 0.9206 0 1.622 0.401 0.7018 0.3919 1.103 1.148zm-4.931 3.81q0 1.951 0.6198 2.944 0.6198 0.9935 1.832 0.9935t1.841-1.003q0.638-1.003 0.638-2.935 0-1.941-0.638-2.935-0.6289-1.003-1.841-1.003t-1.832 0.9935q-0.6198 0.9935-0.6198 2.944z"/><path d="m219.8 339.4q-1.276 0-1.932 0.9935-0.6562 0.9935-0.6562 2.944 0 1.941 0.6562 2.944 0.6563 0.9935 1.932 0.9935 1.285 0 1.941-0.9935 0.6562-1.003 0.6562-2.944 0-1.951-0.6562-2.944t-1.941-0.9935zm0-1.422q2.124 0 3.245 1.376 1.13 1.376 1.13 3.983 0 2.616-1.121 3.992-1.121 1.367-3.254 1.367-2.124 0-3.245-1.367-1.121-1.376-1.121-3.992 0-2.607 1.121-3.983 1.121-1.376 3.245-1.376z"/><path d="m236 340.4q-0.5378-0.4193-1.094-0.6107t-1.221-0.1914q-1.568 0-2.397 0.9844-0.8294 0.9844-0.8294 2.844v5.077h-1.686v-10.21h1.686v1.996q0.4193-1.085 1.285-1.659 0.875-0.5833 2.069-0.5833 0.6198 0 1.158 0.155t1.03 0.4831z"/></g><path d="m73.21 176a24.5 24.5 0 0 1-24.5 24.5 24.5 24.5 0 0 1-24.5-24.5 24.5 24.5 0 0 1 24.5-24.5 24.5 24.5 0 0 1 24.5 24.5z" fill="#acf" stroke="#000"/><g transform="matrix(.2646 0 0 .2646 -6.916 82.11)" style="shape-inside:url(#rect7802-8-0-4);white-space:pre" aria-label="nfo:RemoteData Object"><path d="m141.1 342.1v6.326h-1.686v-6.326q0-1.376-0.4831-2.023-0.4831-0.6471-1.513-0.6471-1.176 0-1.814 0.8385-0.6289 0.8294-0.6289 2.388v5.77h-1.677v-10.21h1.677v1.531q0.4466-0.875 1.212-1.322 0.7656-0.4557 1.814-0.4557 1.559 0 2.324 1.03 0.7747 1.021 0.7747 3.099z"/><path d="m152.4 334.3v1.395h-1.905q-0.9024 0-1.258 0.3737-0.3464 0.3646-0.3464 1.303v0.9024h3.509v1.303h-3.509v8.905h-1.677v-8.905h-2.725v-1.303h2.725v-0.7109q0-1.677 0.7656-2.47 0.7747-0.793 2.406-0.793z"/><path d="m159.6 339.4q-1.276 0-1.932 0.9935t-0.6562 2.944q0 1.941 0.6562 2.944 0.6562 0.9935 1.932 0.9935 1.285 0 1.941-0.9935 0.6562-1.003 0.6562-2.944 0-1.951-0.6562-2.944t-1.941-0.9935zm0-1.422q2.124 0 3.245 1.376 1.13 1.376 1.13 3.983 0 2.616-1.121 3.992-1.121 1.367-3.254 1.367-2.124 0-3.245-1.367-1.121-1.376-1.121-3.992 0-2.607 1.121-3.983 1.121-1.376 3.245-1.376z"/><path d="m169.7 338.8h2.297v2.762h-2.297zm0 6.909h2.297v2.78h-2.297z"/><path d="m183.4 342q0.7109 0.1823 1.212 0.6927 0.5013 0.5013 1.249 2.014l1.85 3.719h-1.978l-1.622-3.436q-0.7018-1.467-1.267-1.887-0.556-0.4284-1.458-0.4284h-1.759v5.751h-1.85v-13.61h3.792q2.242 0 3.436 1.012 1.194 1.012 1.194 2.926 0 1.349-0.7383 2.206-0.7292 0.8477-2.06 1.039zm-3.773-5.669v4.831h2.014q1.322 0 1.969-0.5924 0.6471-0.5924 0.6471-1.814 0-1.176-0.6927-1.796-0.6836-0.6289-1.996-0.6289z"/><path d="m197.8 342.9v0.8203h-7.264v0.0547q0 1.668 0.8659 2.579 0.875 0.9115 2.461 0.9115 0.8021 0 1.677-0.2552 0.875-0.2552 1.868-0.7747v1.668q-0.957 0.3919-1.85 0.5833-0.8841 0.2005-1.714 0.2005-2.379 0-3.719-1.422-1.34-1.431-1.34-3.938 0-2.443 1.312-3.901 1.312-1.458 3.5-1.458 1.951 0 3.072 1.322 1.13 1.322 1.13 3.609zm-1.677-0.4922q-0.0365-1.477-0.7018-2.242-0.6562-0.7747-1.896-0.7747-1.212 0-1.996 0.8021-0.7838 0.8021-0.9297 2.224z"/><path d="m205.1 339.3q0.3099-0.6562 0.7838-0.9662 0.4831-0.319 1.158-0.319 1.23 0 1.732 0.957 0.5104 0.9479 0.5104 3.582v5.915h-1.531v-5.842q0-2.16-0.2461-2.68-0.237-0.5286-0.875-0.5286-0.7292 0-1.003 0.5651-0.2643 0.556-0.2643 2.643v5.842h-1.531v-5.842q0-2.188-0.2643-2.698-0.2552-0.5104-0.9297-0.5104-0.6654 0-0.9297 0.5651-0.2552 0.556-0.2552 2.643v5.842h-1.522v-10.21h1.522v0.875q0.3008-0.5469 0.7474-0.8294 0.4557-0.2917 1.03-0.2917 0.6927 0 1.148 0.319 0.4648 0.319 0.7201 0.9662z"/><path d="m215.8 339.4q-1.276 0-1.932 0.9935t-0.6562 2.944q0 1.941 0.6562 2.944 0.6562 0.9935 1.932 0.9935 1.285 0 1.941-0.9935 0.6562-1.003 0.6562-2.944 0-1.951-0.6562-2.944-0.6563-0.9935-1.941-0.9935zm0-1.422q2.124 0 3.245 1.376 1.13 1.376 1.13 3.983 0 2.616-1.121 3.992-1.121 1.367-3.254 1.367-2.124 0-3.245-1.367-1.121-1.376-1.121-3.992 0-2.607 1.121-3.983 1.121-1.376 3.245-1.376z"/><path d="m227 335.4v2.898h3.81v1.303h-3.81v5.542q0 1.13 0.4284 1.577 0.4284 0.4466 1.495 0.4466h1.887v1.34h-2.051q-1.887 0-2.661-0.7565-0.7748-0.7565-0.7748-2.607v-5.542h-2.725v-1.303h2.725v-2.898z"/><path d="m242.8 342.9v0.8203h-7.264v0.0547q0 1.668 0.8659 2.579 0.875 0.9115 2.461 0.9115 0.8021 0 1.677-0.2552 0.875-0.2552 1.868-0.7747v1.668q-0.957 0.3919-1.85 0.5833-0.8841 0.2005-1.714 0.2005-2.379 0-3.719-1.422-1.34-1.431-1.34-3.938 0-2.443 1.312-3.901 1.312-1.458 3.5-1.458 1.951 0 3.072 1.322 1.13 1.322 1.13 3.609zm-1.677-0.4922q-0.0365-1.477-0.7018-2.242-0.6563-0.7747-1.896-0.7747-1.212 0-1.996 0.8021-0.7838 0.8021-0.9297 2.224z"/><path d="m247.8 346.9q2.324 0 3.245-1.139 0.9206-1.148 0.9206-4.138 0-3.017-0.9206-4.156-0.9115-1.148-3.245-1.148h-0.875v10.58zm0.0365-12.1q3.117 0 4.594 1.659 1.477 1.659 1.477 5.159 0 3.482-1.477 5.141-1.477 1.65-4.594 1.65h-2.762v-13.61z"/><path d="m261.5 343.3h-0.556q-1.467 0-2.215 0.5195-0.7383 0.5104-0.7383 1.531 0 0.9206 0.556 1.431 0.556 0.5104 1.54 0.5104 1.385 0 2.178-0.957 0.793-0.9662 0.8021-2.661v-0.3737zm3.254-0.6927v5.824h-1.686v-1.513q-0.5378 0.9115-1.358 1.349-0.8112 0.4284-1.978 0.4284-1.559 0-2.488-0.875-0.9297-0.8841-0.9297-2.361 0-1.704 1.139-2.589 1.148-0.8841 3.363-0.8841h2.251v-0.2643q-9e-3 -1.221-0.6198-1.768-0.6107-0.556-1.951-0.556-0.8568 0-1.732 0.2461-0.875 0.2461-1.704 0.7201v-1.677q0.9297-0.3555 1.777-0.5286 0.8568-0.1823 1.659-0.1823 1.267 0 2.16 0.3737 0.9024 0.3737 1.458 1.121 0.3464 0.4557 0.4922 1.13 0.1458 0.6654 0.1458 2.005z"/><path d="m271.9 335.4v2.898h3.81v1.303h-3.81v5.542q0 1.13 0.4284 1.577 0.4284 0.4466 1.495 0.4466h1.887v1.34h-2.051q-1.887 0-2.661-0.7565-0.7747-0.7565-0.7747-2.607v-5.542h-2.725v-1.303h2.725v-2.898z"/><path d="m284 343.3h-0.556q-1.467 0-2.215 0.5195-0.7383 0.5104-0.7383 1.531 0 0.9206 0.556 1.431 0.556 0.5104 1.54 0.5104 1.385 0 2.178-0.957 0.793-0.9662 0.8021-2.661v-0.3737zm3.254-0.6927v5.824h-1.686v-1.513q-0.5378 0.9115-1.358 1.349-0.8112 0.4284-1.978 0.4284-1.559 0-2.488-0.875-0.9297-0.8841-0.9297-2.361 0-1.704 1.139-2.589 1.148-0.8841 3.363-0.8841h2.251v-0.2643q-9e-3 -1.221-0.6198-1.768-0.6107-0.556-1.951-0.556-0.8568 0-1.732 0.2461-0.875 0.2461-1.704 0.7201v-1.677q0.9297-0.3555 1.777-0.5286 0.8568-0.1823 1.659-0.1823 1.267 0 2.16 0.3737 0.9023 0.3737 1.458 1.121 0.3464 0.4557 0.4922 1.13 0.1458 0.6654 0.1458 2.005z"/><path d="m184.7 365q0-2.999-0.6198-4.284-0.6107-1.285-2.014-1.285-1.395 0-2.014 1.285-0.6107 1.285-0.6107 4.284 0 2.99 0.6107 4.275 0.6198 1.285 2.014 1.285 1.404 0 2.014-1.276 0.6198-1.285 0.6198-4.284zm1.923 0q0 3.555-1.13 5.305-1.121 1.75-3.427 1.75-2.306 0-3.427-1.741-1.121-1.741-1.121-5.314 0-3.564 1.121-5.314 1.13-1.75 3.427-1.75 2.306 0 3.427 1.75 1.13 1.75 1.13 5.314z"/><path d="m196 366.7q0-1.951-0.6198-2.944-0.6198-0.9935-1.832-0.9935-1.221 0-1.85 1.003-0.6289 0.9935-0.6289 2.935 0 1.932 0.6289 2.935 0.6289 1.003 1.85 1.003 1.212 0 1.832-0.9935 0.6198-0.9935 0.6198-2.944zm-4.931-3.81q0.401-0.7474 1.103-1.148 0.7109-0.401 1.641-0.401 1.841 0 2.898 1.422 1.057 1.413 1.057 3.901 0 2.525-1.066 3.965-1.057 1.431-2.908 1.431-0.9115 0-1.613-0.3919-0.6927-0.401-1.112-1.158v1.285h-1.677v-14.18h1.677z"/><path d="m204.4 372v-9.087h-2.889v-1.303h4.566v10.39q0 1.777-0.8203 2.734-0.8112 0.9662-2.315 0.9662h-2.315v-1.422h2.133q0.8203 0 1.23-0.5742 0.4102-0.5651 0.4102-1.704zm0-14.36h1.677v2.124h-1.677z"/><path d="m220.3 366.3v0.8203h-7.264v0.0547q0 1.668 0.8659 2.579 0.875 0.9115 2.461 0.9115 0.8021 0 1.677-0.2552t1.868-0.7747v1.668q-0.957 0.3919-1.85 0.5833-0.8841 0.2005-1.714 0.2005-2.379 0-3.719-1.422-1.34-1.431-1.34-3.938 0-2.443 1.313-3.901 1.312-1.458 3.5-1.458 1.951 0 3.072 1.322 1.13 1.322 1.13 3.609zm-1.677-0.4922q-0.0365-1.477-0.7018-2.242-0.6562-0.7747-1.896-0.7747-1.212 0-1.996 0.8021-0.7839 0.8021-0.9297 2.224z"/><path d="m231.1 371.3q-0.6745 0.3919-1.395 0.5833-0.7109 0.2005-1.458 0.2005-2.37 0-3.71-1.422-1.331-1.422-1.331-3.938t1.331-3.938q1.34-1.422 3.71-1.422 0.7383 0 1.44 0.1914 0.7018 0.1914 1.413 0.5924v1.759q-0.6654-0.5924-1.34-0.8568-0.6654-0.2643-1.513-0.2643-1.577 0-2.424 1.021-0.8476 1.021-0.8476 2.917 0 1.887 0.8476 2.917 0.8568 1.021 2.424 1.021 0.875 0 1.568-0.2643 0.6927-0.2734 1.285-0.8385z"/><path d="m238.2 358.7v2.898h3.81v1.303h-3.81v5.542q0 1.13 0.4284 1.577 0.4284 0.4466 1.495 0.4466h1.887v1.34h-2.051q-1.887 0-2.661-0.7565t-0.7747-2.607v-5.542h-2.725v-1.303h2.725v-2.898z"/></g><g stroke="#000" stroke-linejoin="bevel"><path d="m75.11 38.49 138.2-19.17" fill="none" marker-end="url(#j)"/><path d="m75.34 41.83 137.9-0.1519" fill="url(#c)" fill-rule="evenodd" marker-end="url(#i)"/><path d="m75.13 45.09 138.2 18.37" fill="url(#b)" fill-rule="evenodd" marker-end="url(#h)"/></g><path d="m154.1 19.83h26.3v10.67h-26.3z" fill="#aade87"/><g transform="matrix(.2646 0 0 .2646 41.17 -52.85)" style="shape-inside:url(#rect19581);white-space:pre" aria-label="mu:uuid"><path d="m443.8 292.6q0.3099-0.6562 0.7838-0.9662 0.4831-0.319 1.158-0.319 1.23 0 1.732 0.957 0.5104 0.9479 0.5104 3.582v5.915h-1.531v-5.842q0-2.16-0.2461-2.68-0.237-0.5286-0.875-0.5286-0.7292 0-1.003 0.5651-0.2643 0.556-0.2643 2.643v5.842h-1.531v-5.842q0-2.188-0.2643-2.698-0.2552-0.5104-0.9297-0.5104-0.6654 0-0.9297 0.5651-0.2552 0.556-0.2552 2.643v5.842h-1.522v-10.21h1.522v0.875q0.3008-0.5469 0.7474-0.8294 0.4557-0.2917 1.03-0.2917 0.6927 0 1.148 0.319 0.4648 0.319 0.7201 0.9662z"/><path d="m450.6 297.9v-6.326h1.677v6.326q0 1.376 0.4831 2.023 0.4922 0.6471 1.513 0.6471 1.185 0 1.814-0.8294 0.6289-0.8386 0.6289-2.397v-5.77h1.686v10.19h-1.686v-1.531q-0.4466 0.8841-1.221 1.34-0.7656 0.4557-1.796 0.4557-1.568 0-2.333-1.021-0.7656-1.03-0.7656-3.108z"/><path d="m464.6 292.1h2.297v2.762h-2.297zm0 6.909h2.297v2.78h-2.297z"/><path d="m473.1 297.9v-6.326h1.677v6.326q0 1.376 0.4831 2.023 0.4922 0.6471 1.513 0.6471 1.185 0 1.814-0.8294 0.6289-0.8386 0.6289-2.397v-5.77h1.686v10.19h-1.686v-1.531q-0.4466 0.8841-1.221 1.34-0.7656 0.4557-1.796 0.4557-1.568 0-2.333-1.021-0.7656-1.03-0.7656-3.108z"/><path d="m484.3 297.9v-6.326h1.677v6.326q0 1.376 0.4831 2.023 0.4922 0.6471 1.513 0.6471 1.185 0 1.814-0.8294 0.6289-0.8386 0.6289-2.397v-5.77h1.686v10.19h-1.686v-1.531q-0.4466 0.8841-1.221 1.34-0.7656 0.4557-1.796 0.4557-1.568 0-2.333-1.021-0.7656-1.03-0.7656-3.108z"/><path d="m496.1 291.6h4.293v8.905h3.327v1.303h-8.331v-1.303h3.327v-7.602h-2.616zm2.616-3.974h1.677v2.124h-1.677z"/><path d="m512.9 292.9v-5.277h1.677v14.18h-1.677v-1.285q-0.4193 0.7565-1.121 1.158-0.6927 0.3919-1.604 0.3919-1.85 0-2.917-1.431-1.057-1.44-1.057-3.965 0-2.488 1.066-3.901 1.066-1.422 2.908-1.422 0.9206 0 1.622 0.401 0.7018 0.3919 1.103 1.148zm-4.931 3.81q0 1.951 0.6198 2.944t1.832 0.9935 1.841-1.003q0.638-1.003 0.638-2.935 0-1.941-0.638-2.935-0.6289-1.003-1.841-1.003t-1.832 0.9935-0.6198 2.944z"/></g><g fill="none" stroke="#000" stroke-linejoin="bevel"><path d="m73.91 50.11 148 52.93" marker-end="url(#g)"/><path d="m70.14 56.95 114 89.11" marker-end="url(#f)"/><path d="m63.26 62.98 52.55 89.35" marker-end="url(#e)"/><path d="m50.45 66.36-1.353 85.18" marker-end="url(#d)"/></g><path d="m143.7 77.25h47.19v10.67h-47.19z" fill="#acf"/><g transform="matrix(.2646 0 0 .2646 30.67 4.083)" style="shape-inside:url(#rect19581-0);white-space:pre" aria-label="prov:generated"><path d="m441 300.5v5.168h-1.686v-14.09h1.686v1.303q0.4193-0.7565 1.112-1.148 0.7018-0.401 1.613-0.401 1.85 0 2.898 1.431 1.057 1.431 1.057 3.965 0 2.488-1.057 3.91-1.057 1.413-2.898 1.413-0.9297 0-1.632-0.3919-0.6927-0.401-1.094-1.158zm4.922-3.81q0-1.951-0.6198-2.944-0.6107-0.9935-1.823-0.9935-1.221 0-1.85 1.003-0.6289 0.9935-0.6289 2.935 0 1.932 0.6289 2.935 0.6289 1.003 1.85 1.003 1.212 0 1.823-0.9935 0.6198-0.9935 0.6198-2.944z"/><path d="m459.4 293.7q-0.5378-0.4193-1.094-0.6107t-1.221-0.1914q-1.568 0-2.397 0.9844t-0.8294 2.844v5.077h-1.686v-10.21h1.686v1.996q0.4193-1.085 1.285-1.659 0.875-0.5833 2.069-0.5833 0.6198 0 1.158 0.155t1.03 0.4831z"/><path d="m465.7 292.8q-1.276 0-1.932 0.9935t-0.6562 2.944q0 1.941 0.6562 2.944 0.6562 0.9935 1.932 0.9935 1.285 0 1.941-0.9935 0.6562-1.003 0.6562-2.944 0-1.951-0.6562-2.944t-1.941-0.9935zm0-1.422q2.124 0 3.245 1.376 1.13 1.376 1.13 3.983 0 2.616-1.121 3.992-1.121 1.367-3.254 1.367-2.124 0-3.245-1.367-1.121-1.376-1.121-3.992 0-2.607 1.121-3.983 1.121-1.376 3.245-1.376z"/><path d="m472.2 291.6h1.741l2.962 8.568 2.971-8.568h1.741l-3.628 10.21h-2.16z"/><path d="m487 292.1h2.297v2.762h-2.297zm0 6.909h2.297v2.78h-2.297z"/><path d="m501.6 296.6q0-1.887-0.6198-2.862-0.6107-0.9844-1.786-0.9844-1.23 0-1.878 0.9844-0.6471 0.9753-0.6471 2.862t0.6471 2.88q0.6562 0.9844 1.896 0.9844 1.158 0 1.768-0.9935 0.6198-0.9935 0.6198-2.871zm1.677 4.53q0 2.297-1.085 3.482-1.085 1.185-3.19 1.185-0.6927 0-1.449-0.1276-0.7565-0.1276-1.513-0.3737v-1.659q0.8932 0.4193 1.622 0.6198 0.7292 0.2005 1.34 0.2005 1.358 0 1.978-0.7383 0.6198-0.7383 0.6198-2.342v-1.212q-0.401 0.8568-1.094 1.276-0.6927 0.4193-1.686 0.4193-1.786 0-2.853-1.431-1.066-1.431-1.066-3.828 0-2.406 1.066-3.837 1.066-1.431 2.853-1.431 0.9844 0 1.668 0.3919 0.6836 0.3919 1.112 1.212v-1.322h1.677z"/><path d="m515.2 296.3v0.8203h-7.264v0.0547q0 1.668 0.8659 2.579 0.875 0.9115 2.461 0.9115 0.8021 0 1.677-0.2552 0.875-0.2552 1.868-0.7748v1.668q-0.957 0.3919-1.85 0.5833-0.8841 0.2005-1.714 0.2005-2.379 0-3.719-1.422-1.34-1.431-1.34-3.938 0-2.443 1.313-3.901 1.312-1.458 3.5-1.458 1.951 0 3.072 1.322 1.13 1.322 1.13 3.609zm-1.677-0.4922q-0.0365-1.477-0.7018-2.242-0.6562-0.7747-1.896-0.7747-1.212 0-1.996 0.8021-0.7839 0.8021-0.9297 2.224z"/><path d="m525.9 295.5v6.326h-1.686v-6.326q0-1.376-0.4831-2.023-0.4831-0.6471-1.513-0.6471-1.176 0-1.814 0.8385-0.6289 0.8294-0.6289 2.388v5.77h-1.677v-10.21h1.677v1.531q0.4466-0.875 1.212-1.322 0.7656-0.4557 1.814-0.4557 1.559 0 2.324 1.03 0.7747 1.021 0.7747 3.099z"/><path d="m537.7 296.3v0.8203h-7.264v0.0547q0 1.668 0.8659 2.579 0.875 0.9115 2.461 0.9115 0.8021 0 1.677-0.2552 0.875-0.2552 1.868-0.7748v1.668q-0.957 0.3919-1.85 0.5833-0.8841 0.2005-1.714 0.2005-2.379 0-3.719-1.422-1.34-1.431-1.34-3.938 0-2.443 1.313-3.901 1.312-1.458 3.5-1.458 1.951 0 3.072 1.322 1.13 1.322 1.13 3.609zm-1.677-0.4922q-0.0365-1.477-0.7018-2.242-0.6562-0.7747-1.896-0.7747-1.212 0-1.996 0.8021-0.7839 0.8021-0.9297 2.224z"/><path d="m549.3 293.7q-0.5378-0.4193-1.094-0.6107t-1.221-0.1914q-1.568 0-2.397 0.9844t-0.8294 2.844v5.077h-1.686v-10.21h1.686v1.996q0.4193-1.085 1.285-1.659 0.875-0.5833 2.069-0.5833 0.6198 0 1.158 0.155 0.5378 0.155 1.03 0.4831z"/><path d="m556.4 296.7h-0.556q-1.467 0-2.215 0.5195-0.7383 0.5104-0.7383 1.531 0 0.9206 0.556 1.431 0.556 0.5104 1.54 0.5104 1.385 0 2.178-0.957 0.793-0.9662 0.8021-2.661v-0.3737zm3.254-0.6927v5.824h-1.686v-1.513q-0.5378 0.9115-1.358 1.349-0.8112 0.4284-1.978 0.4284-1.559 0-2.488-0.875-0.9297-0.8841-0.9297-2.361 0-1.704 1.139-2.589 1.148-0.8841 3.363-0.8841h2.251v-0.2643q-9e-3 -1.221-0.6198-1.768-0.6107-0.556-1.951-0.556-0.8568 0-1.732 0.2461-0.875 0.2461-1.704 0.7201v-1.677q0.9297-0.3555 1.777-0.5286 0.8568-0.1823 1.659-0.1823 1.267 0 2.16 0.3737 0.9024 0.3737 1.458 1.121 0.3464 0.4557 0.4922 1.13 0.1458 0.6654 0.1458 2.005z"/><path d="m566.8 288.7v2.898h3.81v1.303h-3.81v5.542q0 1.13 0.4284 1.577 0.4284 0.4466 1.495 0.4466h1.887v1.34h-2.051q-1.887 0-2.661-0.7565-0.7747-0.7565-0.7747-2.607v-5.542h-2.725v-1.303h2.725v-2.898z"/><path d="m582.6 296.3v0.8203h-7.264v0.0547q0 1.668 0.8659 2.579 0.875 0.9115 2.461 0.9115 0.8021 0 1.677-0.2552 0.875-0.2552 1.868-0.7748v1.668q-0.957 0.3919-1.85 0.5833-0.8841 0.2005-1.714 0.2005-2.379 0-3.719-1.422-1.34-1.431-1.34-3.938 0-2.443 1.312-3.901 1.313-1.458 3.5-1.458 1.951 0 3.072 1.322 1.13 1.322 1.13 3.609zm-1.677-0.4922q-0.0365-1.477-0.7018-2.242-0.6562-0.7747-1.896-0.7747-1.212 0-1.996 0.8021-0.7839 0.8021-0.9297 2.224z"/><path d="m591.5 292.9v-5.277h1.677v14.18h-1.677v-1.285q-0.4193 0.7565-1.121 1.158-0.6927 0.3919-1.604 0.3919-1.85 0-2.917-1.431-1.057-1.44-1.057-3.965 0-2.488 1.066-3.901 1.066-1.422 2.908-1.422 0.9206 0 1.622 0.401 0.7018 0.3919 1.103 1.148zm-4.931 3.81q0 1.951 0.6198 2.944 0.6198 0.9935 1.832 0.9935t1.841-1.003q0.638-1.003 0.638-2.935 0-1.941-0.638-2.935-0.6289-1.003-1.841-1.003t-1.832 0.9935q-0.6198 0.9935-0.6198 2.944z"/></g><path d="m70.3 104.4h47.19v10.67h-47.19z" fill="#acf"/><g transform="matrix(.2646 0 0 .2646 -42.84 31.25)" style="shape-inside:url(#rect19581-0-4);white-space:pre" aria-label="pav:providedBy"><path d="m441 300.5v5.168h-1.686v-14.09h1.686v1.303q0.4193-0.7565 1.112-1.148 0.7018-0.401 1.613-0.401 1.85 0 2.898 1.431 1.057 1.431 1.057 3.965 0 2.488-1.057 3.91-1.057 1.413-2.898 1.413-0.9297 0-1.632-0.3919-0.6927-0.401-1.094-1.158zm4.922-3.81q0-1.951-0.6198-2.944-0.6107-0.9935-1.823-0.9935-1.221 0-1.85 1.003-0.6289 0.9935-0.6289 2.935 0 1.932 0.6289 2.935 0.6289 1.003 1.85 1.003 1.212 0 1.823-0.9935 0.6198-0.9935 0.6198-2.944z"/><path d="m455.3 296.7h-0.556q-1.467 0-2.215 0.5195-0.7383 0.5104-0.7383 1.531 0 0.9206 0.556 1.431 0.556 0.5104 1.54 0.5104 1.385 0 2.178-0.957 0.793-0.9662 0.8021-2.661v-0.3737zm3.254-0.6927v5.824h-1.686v-1.513q-0.5378 0.9115-1.358 1.349-0.8112 0.4284-1.978 0.4284-1.559 0-2.488-0.875-0.9297-0.8841-0.9297-2.361 0-1.704 1.139-2.589 1.148-0.8841 3.363-0.8841h2.251v-0.2643q-9e-3 -1.221-0.6198-1.768-0.6107-0.556-1.951-0.556-0.8568 0-1.732 0.2461-0.875 0.2461-1.704 0.7201v-1.677q0.9297-0.3555 1.777-0.5286 0.8568-0.1823 1.659-0.1823 1.267 0 2.16 0.3737 0.9024 0.3737 1.458 1.121 0.3464 0.4557 0.4922 1.13 0.1458 0.6654 0.1458 2.005z"/><path d="m461 291.6h1.741l2.962 8.568 2.971-8.568h1.741l-3.628 10.21h-2.16z"/><path d="m475.8 292.1h2.297v2.762h-2.297zm0 6.909h2.297v2.78h-2.297z"/><path d="m486 300.5v5.168h-1.686v-14.09h1.686v1.303q0.4193-0.7565 1.112-1.148 0.7018-0.401 1.613-0.401 1.85 0 2.898 1.431 1.057 1.431 1.057 3.965 0 2.488-1.057 3.91-1.057 1.413-2.898 1.413-0.9297 0-1.632-0.3919-0.6927-0.401-1.094-1.158zm4.922-3.81q0-1.951-0.6198-2.944-0.6107-0.9935-1.823-0.9935-1.221 0-1.85 1.003-0.6289 0.9935-0.6289 2.935 0 1.932 0.6289 2.935 0.6289 1.003 1.85 1.003 1.212 0 1.823-0.9935 0.6198-0.9935 0.6198-2.944z"/><path d="m504.3 293.7q-0.5378-0.4193-1.094-0.6107t-1.221-0.1914q-1.568 0-2.397 0.9844t-0.8294 2.844v5.077h-1.686v-10.21h1.686v1.996q0.4193-1.085 1.285-1.659 0.875-0.5833 2.069-0.5833 0.6198 0 1.158 0.155 0.5378 0.155 1.03 0.4831z"/><path d="m510.7 292.8q-1.276 0-1.932 0.9935-0.6563 0.9935-0.6563 2.944 0 1.941 0.6563 2.944 0.6562 0.9935 1.932 0.9935 1.285 0 1.941-0.9935 0.6562-1.003 0.6562-2.944 0-1.951-0.6562-2.944t-1.941-0.9935zm0-1.422q2.124 0 3.245 1.376 1.13 1.376 1.13 3.983 0 2.616-1.121 3.992-1.121 1.367-3.254 1.367-2.124 0-3.245-1.367-1.121-1.376-1.121-3.992 0-2.607 1.121-3.983 1.121-1.376 3.245-1.376z"/><path d="m517.2 291.6h1.741l2.962 8.568 2.971-8.568h1.741l-3.628 10.21h-2.16z"/><path d="m529.9 291.6h4.293v8.905h3.327v1.303h-8.331v-1.303h3.327v-7.602h-2.616zm2.616-3.974h1.677v2.124h-1.677z"/><path d="m546.6 292.9v-5.277h1.677v14.18h-1.677v-1.285q-0.4193 0.7565-1.121 1.158-0.6927 0.3919-1.604 0.3919-1.85 0-2.917-1.431-1.057-1.44-1.057-3.965 0-2.488 1.066-3.901 1.066-1.422 2.908-1.422 0.9206 0 1.622 0.401 0.7018 0.3919 1.103 1.148zm-4.931 3.81q0 1.951 0.6198 2.944 0.6198 0.9935 1.832 0.9935t1.841-1.003q0.638-1.003 0.638-2.935 0-1.941-0.638-2.935-0.6289-1.003-1.841-1.003t-1.832 0.9935q-0.6198 0.9935-0.6198 2.944z"/><path d="m560.1 296.3v0.8203h-7.264v0.0547q0 1.668 0.8659 2.579 0.875 0.9115 2.461 0.9115 0.8021 0 1.677-0.2552 0.875-0.2552 1.868-0.7748v1.668q-0.957 0.3919-1.85 0.5833-0.8841 0.2005-1.714 0.2005-2.379 0-3.719-1.422-1.34-1.431-1.34-3.938 0-2.443 1.313-3.901 1.312-1.458 3.5-1.458 1.951 0 3.072 1.322 1.13 1.322 1.13 3.609zm-1.677-0.4922q-0.0365-1.477-0.7018-2.242-0.6562-0.7747-1.896-0.7747-1.212 0-1.996 0.8021-0.7839 0.8021-0.9297 2.224z"/><path d="m569.1 292.9v-5.277h1.677v14.18h-1.677v-1.285q-0.4193 0.7565-1.121 1.158-0.6927 0.3919-1.604 0.3919-1.85 0-2.917-1.431-1.057-1.44-1.057-3.965 0-2.488 1.066-3.901 1.066-1.422 2.908-1.422 0.9206 0 1.622 0.401 0.7018 0.3919 1.103 1.148zm-4.931 3.81q0 1.951 0.6198 2.944 0.6198 0.9935 1.832 0.9935t1.841-1.003q0.638-1.003 0.638-2.935 0-1.941-0.638-2.935-0.6289-1.003-1.841-1.003t-1.832 0.9935q-0.6198 0.9935-0.6198 2.944z"/><path d="m575.8 295.3v4.986h2.178q1.604 0 2.288-0.556 0.6836-0.5651 0.6836-1.85 0-1.331-0.72-1.951-0.72-0.6289-2.251-0.6289zm0-5.596v4.102h2.142q1.331 0 1.923-0.5104 0.6016-0.5104 0.6016-1.65 0-1.03-0.5924-1.486-0.5833-0.4557-1.932-0.4557zm-1.85-1.513h4.029q2.087 0 3.217 0.9024 1.13 0.9023 1.13 2.552 0 1.249-0.6016 1.969-0.5924 0.72-1.786 0.9023 1.34 0.2005 2.096 1.148 0.7656 0.9388 0.7656 2.397 0 1.85-1.212 2.798-1.212 0.9388-3.609 0.9388h-4.029z"/><path d="m591.5 298.5q-0.4193 1.066-1.066 2.807-0.9023 2.406-1.212 2.935-0.4193 0.7109-1.048 1.066t-1.467 0.3555h-1.349v-1.404h0.9935q0.7383 0 1.158-0.4284 0.4193-0.4284 1.066-2.215l-3.947-10.04h1.777l3.026 7.984 2.98-7.984h1.777z"/></g><path d="m28.17 125.4h38.16v10.67h-38.16z" fill="#acf"/><g transform="matrix(.2646 0 0 .2646 -84.88 52.77)" style="shape-inside:url(#rect19581-0-4-2);white-space:pre" aria-label="nie:hasPart"><path d="m447.2 295.5v6.326h-1.686v-6.326q0-1.376-0.4831-2.023-0.4831-0.6471-1.513-0.6471-1.176 0-1.814 0.8385-0.6289 0.8294-0.6289 2.388v5.77h-1.677v-10.21h1.677v1.531q0.4466-0.875 1.212-1.322 0.7656-0.4557 1.814-0.4557 1.559 0 2.324 1.03 0.7747 1.021 0.7747 3.099z"/><path d="m451.2 291.6h4.293v8.905h3.327v1.303h-8.331v-1.303h3.327v-7.602h-2.616zm2.616-3.974h1.677v2.124h-1.677z"/><path d="m470.2 296.3v0.8203h-7.264v0.0547q0 1.668 0.8659 2.579 0.875 0.9115 2.461 0.9115 0.8021 0 1.677-0.2552 0.875-0.2552 1.868-0.7748v1.668q-0.957 0.3919-1.85 0.5833-0.8841 0.2005-1.714 0.2005-2.379 0-3.719-1.422-1.34-1.431-1.34-3.938 0-2.443 1.312-3.901 1.312-1.458 3.5-1.458 1.951 0 3.072 1.322 1.13 1.322 1.13 3.609zm-1.677-0.4922q-0.0365-1.477-0.7018-2.242-0.6562-0.7747-1.896-0.7747-1.212 0-1.996 0.8021-0.7839 0.8021-0.9297 2.224z"/><path d="m475.8 292.1h2.297v2.762h-2.297zm0 6.909h2.297v2.78h-2.297z"/><path d="m492.1 295.5v6.326h-1.686v-6.326q0-1.376-0.4831-2.023-0.4831-0.6471-1.513-0.6471-1.176 0-1.814 0.8385-0.6289 0.8294-0.6289 2.388v5.77h-1.677v-14.18h1.677v5.505q0.4466-0.875 1.212-1.322 0.7656-0.4557 1.814-0.4557 1.559 0 2.324 1.03 0.7747 1.021 0.7747 3.099z"/><path d="m500.2 296.7h-0.556q-1.467 0-2.215 0.5195-0.7383 0.5104-0.7383 1.531 0 0.9206 0.556 1.431 0.556 0.5104 1.54 0.5104 1.385 0 2.178-0.957 0.793-0.9662 0.8021-2.661v-0.3737zm3.254-0.6927v5.824h-1.686v-1.513q-0.5378 0.9115-1.358 1.349-0.8112 0.4284-1.978 0.4284-1.559 0-2.488-0.875-0.9297-0.8841-0.9297-2.361 0-1.704 1.139-2.589 1.148-0.8841 3.363-0.8841h2.251v-0.2643q-9e-3 -1.221-0.6198-1.768-0.6107-0.556-1.951-0.556-0.8568 0-1.732 0.2461-0.875 0.2461-1.704 0.7201v-1.677q0.9297-0.3555 1.777-0.5286 0.8568-0.1823 1.659-0.1823 1.267 0 2.16 0.3737 0.9023 0.3737 1.458 1.121 0.3464 0.4557 0.4922 1.13 0.1458 0.6654 0.1458 2.005z"/><path d="m513.9 291.9v1.641q-0.72-0.4193-1.449-0.6289-0.7292-0.2096-1.486-0.2096-1.139 0-1.704 0.3737-0.556 0.3646-0.556 1.121 0 0.6836 0.4193 1.021t2.087 0.6562l0.6745 0.1276q1.249 0.237 1.887 0.9479 0.6471 0.7109 0.6471 1.85 0 1.513-1.076 2.37-1.076 0.8477-2.99 0.8477-0.7565 0-1.586-0.1641-0.8294-0.155-1.796-0.474v-1.732q0.9388 0.4831 1.796 0.7292 0.8568 0.237 1.622 0.237 1.112 0 1.723-0.4466 0.6107-0.4557 0.6107-1.267 0-1.167-2.233-1.613l-0.0729-0.0182-0.6289-0.1276q-1.449-0.2826-2.115-0.9479-0.6654-0.6745-0.6654-1.832 0-1.467 0.9935-2.26 0.9935-0.8021 2.835-0.8021 0.8203 0 1.577 0.155 0.7565 0.1458 1.486 0.4466z"/><path d="m519.9 289.7v5.113h2.133q1.276 0 1.987-0.6745 0.72-0.6745 0.72-1.887t-0.7109-1.878q-0.7109-0.6745-1.996-0.6745zm-1.841-1.513h3.974q2.279 0 3.454 1.039 1.176 1.03 1.176 3.026 0 2.014-1.176 3.044-1.167 1.03-3.454 1.03h-2.133v5.469h-1.841z"/><path d="m533.9 296.7h-0.556q-1.467 0-2.215 0.5195-0.7383 0.5104-0.7383 1.531 0 0.9206 0.556 1.431 0.556 0.5104 1.54 0.5104 1.385 0 2.178-0.957 0.793-0.9662 0.8021-2.661v-0.3737zm3.254-0.6927v5.824h-1.686v-1.513q-0.5378 0.9115-1.358 1.349-0.8112 0.4284-1.978 0.4284-1.559 0-2.488-0.875-0.9297-0.8841-0.9297-2.361 0-1.704 1.139-2.589 1.148-0.8841 3.363-0.8841h2.251v-0.2643q-9e-3 -1.221-0.6198-1.768-0.6107-0.556-1.951-0.556-0.8568 0-1.732 0.2461-0.875 0.2461-1.704 0.7201v-1.677q0.9297-0.3555 1.777-0.5286 0.8568-0.1823 1.659-0.1823 1.267 0 2.16 0.3737 0.9024 0.3737 1.458 1.121 0.3464 0.4557 0.4922 1.13 0.1458 0.6654 0.1458 2.005z"/><path d="m549.3 293.7q-0.5378-0.4193-1.094-0.6107t-1.221-0.1914q-1.568 0-2.397 0.9844t-0.8294 2.844v5.077h-1.686v-10.21h1.686v1.996q0.4193-1.085 1.285-1.659 0.875-0.5833 2.069-0.5833 0.6198 0 1.158 0.155 0.5378 0.155 1.03 0.4831z"/><path d="m555.6 288.7v2.898h3.81v1.303h-3.81v5.542q0 1.13 0.4284 1.577 0.4284 0.4466 1.495 0.4466h1.887v1.34h-2.051q-1.887 0-2.661-0.7565-0.7747-0.7565-0.7747-2.607v-5.542h-2.725v-1.303h2.725v-2.898z"/></g><path d="m131.8 115.3h37.75v10.67h-37.75z" fill="#acf"/><g transform="matrix(.2646 0 0 .2646 18.65 42.59)" style="shape-inside:url(#rect19581-0-0);white-space:pre" aria-label="adms:status"><path d="m444 296.7h-0.556q-1.467 0-2.215 0.5195-0.7383 0.5104-0.7383 1.531 0 0.9206 0.556 1.431 0.556 0.5104 1.54 0.5104 1.385 0 2.178-0.957 0.793-0.9662 0.8021-2.661v-0.3737zm3.254-0.6927v5.824h-1.686v-1.513q-0.5378 0.9115-1.358 1.349-0.8112 0.4284-1.978 0.4284-1.559 0-2.488-0.875-0.9297-0.8841-0.9297-2.361 0-1.704 1.139-2.589 1.148-0.8841 3.363-0.8841h2.251v-0.2643q-9e-3 -1.221-0.6198-1.768-0.6107-0.556-1.951-0.556-0.8568 0-1.732 0.2461-0.875 0.2461-1.704 0.7201v-1.677q0.9297-0.3555 1.777-0.5286 0.8568-0.1823 1.659-0.1823 1.267 0 2.16 0.3737 0.9024 0.3737 1.458 1.121 0.3464 0.4557 0.4922 1.13 0.1458 0.6654 0.1458 2.005z"/><path d="m456.7 292.9v-5.277h1.677v14.18h-1.677v-1.285q-0.4193 0.7565-1.121 1.158-0.6927 0.3919-1.604 0.3919-1.85 0-2.917-1.431-1.057-1.44-1.057-3.965 0-2.488 1.066-3.901 1.066-1.422 2.908-1.422 0.9206 0 1.622 0.401 0.7018 0.3919 1.103 1.148zm-4.931 3.81q0 1.951 0.6198 2.944t1.832 0.9935q1.212 0 1.841-1.003 0.638-1.003 0.638-2.935 0-1.941-0.638-2.935-0.6289-1.003-1.841-1.003-1.212 0-1.832 0.9935t-0.6198 2.944z"/><path d="m466.3 292.6q0.3099-0.6562 0.7839-0.9662 0.4831-0.319 1.158-0.319 1.23 0 1.732 0.957 0.5104 0.9479 0.5104 3.582v5.915h-1.531v-5.842q0-2.16-0.2461-2.68-0.237-0.5286-0.875-0.5286-0.7292 0-1.003 0.5651-0.2643 0.556-0.2643 2.643v5.842h-1.531v-5.842q0-2.188-0.2643-2.698-0.2552-0.5104-0.9297-0.5104-0.6654 0-0.9297 0.5651-0.2552 0.556-0.2552 2.643v5.842h-1.522v-10.21h1.522v0.875q0.3008-0.5469 0.7474-0.8294 0.4557-0.2917 1.03-0.2917 0.6927 0 1.148 0.319 0.4648 0.319 0.72 0.9662z"/><path d="m480.2 291.9v1.641q-0.7201-0.4193-1.449-0.6289-0.7292-0.2096-1.486-0.2096-1.139 0-1.704 0.3737-0.556 0.3646-0.556 1.121 0 0.6836 0.4193 1.021t2.087 0.6562l0.6745 0.1276q1.249 0.237 1.887 0.9479 0.6471 0.7109 0.6471 1.85 0 1.513-1.076 2.37-1.076 0.8477-2.99 0.8477-0.7565 0-1.586-0.1641-0.8294-0.155-1.796-0.474v-1.732q0.9388 0.4831 1.796 0.7292 0.8568 0.237 1.622 0.237 1.112 0 1.723-0.4466 0.6107-0.4557 0.6107-1.267 0-1.167-2.233-1.613l-0.0729-0.0182-0.6289-0.1276q-1.449-0.2826-2.115-0.9479-0.6654-0.6745-0.6654-1.832 0-1.467 0.9935-2.26 0.9935-0.8021 2.835-0.8021 0.8203 0 1.577 0.155 0.7565 0.1458 1.486 0.4466z"/><path d="m487 292.1h2.297v2.762h-2.297zm0 6.909h2.297v2.78h-2.297z"/><path d="m502.7 291.9v1.641q-0.72-0.4193-1.449-0.6289-0.7292-0.2096-1.486-0.2096-1.139 0-1.704 0.3737-0.556 0.3646-0.556 1.121 0 0.6836 0.4193 1.021t2.087 0.6562l0.6745 0.1276q1.249 0.237 1.887 0.9479 0.6471 0.7109 0.6471 1.85 0 1.513-1.076 2.37-1.076 0.8477-2.99 0.8477-0.7565 0-1.586-0.1641-0.8294-0.155-1.796-0.474v-1.732q0.9388 0.4831 1.796 0.7292 0.8568 0.237 1.622 0.237 1.112 0 1.723-0.4466 0.6107-0.4557 0.6107-1.267 0-1.167-2.233-1.613l-0.0729-0.0182-0.6289-0.1276q-1.449-0.2826-2.115-0.9479-0.6654-0.6745-0.6654-1.832 0-1.467 0.9935-2.26 0.9935-0.8021 2.835-0.8021 0.8203 0 1.577 0.155 0.7565 0.1458 1.486 0.4466z"/><path d="m510.6 288.7v2.898h3.81v1.303h-3.81v5.542q0 1.13 0.4284 1.577 0.4284 0.4466 1.495 0.4466h1.887v1.34h-2.051q-1.887 0-2.661-0.7565-0.7748-0.7565-0.7748-2.607v-5.542h-2.725v-1.303h2.725v-2.898z"/><path d="m522.7 296.7h-0.556q-1.467 0-2.215 0.5195-0.7383 0.5104-0.7383 1.531 0 0.9206 0.556 1.431 0.556 0.5104 1.54 0.5104 1.385 0 2.178-0.957 0.793-0.9662 0.8021-2.661v-0.3737zm3.254-0.6927v5.824h-1.686v-1.513q-0.5378 0.9115-1.358 1.349-0.8112 0.4284-1.978 0.4284-1.559 0-2.488-0.875-0.9297-0.8841-0.9297-2.361 0-1.704 1.139-2.589 1.148-0.8841 3.363-0.8841h2.251v-0.2643q-9e-3 -1.221-0.6198-1.768-0.6107-0.556-1.951-0.556-0.8568 0-1.732 0.2461-0.875 0.2461-1.704 0.7201v-1.677q0.9297-0.3555 1.777-0.5286 0.8568-0.1823 1.659-0.1823 1.267 0 2.16 0.3737 0.9023 0.3737 1.458 1.121 0.3464 0.4557 0.4922 1.13 0.1458 0.6654 0.1458 2.005z"/><path d="m533.1 288.7v2.898h3.81v1.303h-3.81v5.542q0 1.13 0.4284 1.577 0.4284 0.4466 1.495 0.4466h1.887v1.34h-2.051q-1.887 0-2.661-0.7565-0.7747-0.7565-0.7747-2.607v-5.542h-2.725v-1.303h2.725v-2.898z"/><path d="m540.5 297.9v-6.326h1.677v6.326q0 1.376 0.4831 2.023 0.4922 0.6471 1.513 0.6471 1.185 0 1.814-0.8294 0.6289-0.8386 0.6289-2.397v-5.77h1.686v10.19h-1.686v-1.531q-0.4466 0.8841-1.221 1.34-0.7656 0.4557-1.796 0.4557-1.568 0-2.333-1.021-0.7656-1.03-0.7656-3.108z"/><path d="m558.9 291.9v1.641q-0.72-0.4193-1.449-0.6289-0.7292-0.2096-1.486-0.2096-1.139 0-1.704 0.3737-0.556 0.3646-0.556 1.121 0 0.6836 0.4193 1.021 0.4193 0.3372 2.087 0.6562l0.6745 0.1276q1.249 0.237 1.887 0.9479 0.6471 0.7109 0.6471 1.85 0 1.513-1.076 2.37-1.076 0.8477-2.99 0.8477-0.7565 0-1.586-0.1641-0.8294-0.155-1.796-0.474v-1.732q0.9388 0.4831 1.796 0.7292 0.8568 0.237 1.622 0.237 1.112 0 1.723-0.4466 0.6107-0.4557 0.6107-1.267 0-1.167-2.233-1.613l-0.0729-0.0182-0.6289-0.1276q-1.449-0.2826-2.115-0.9479-0.6654-0.6745-0.6654-1.832 0-1.467 0.9935-2.26 0.9935-0.8021 2.835-0.8021 0.8203 0 1.577 0.155 0.7565 0.1458 1.486 0.4466z"/></g><path d="m143 38.79h48.56v10.67h-48.56z" fill="#aade87"/><g transform="matrix(.2646 0 0 .2646 29.17 -34.36)" style="shape-inside:url(#rect19581-9);white-space:pre" aria-label="prov:atLocation"><path d="m441 300.5v5.168h-1.686v-14.09h1.686v1.303q0.4193-0.7565 1.112-1.148 0.7018-0.401 1.613-0.401 1.85 0 2.898 1.431 1.057 1.431 1.057 3.965 0 2.488-1.057 3.91-1.057 1.413-2.898 1.413-0.9297 0-1.632-0.3919-0.6927-0.401-1.094-1.158zm4.922-3.81q0-1.951-0.6198-2.944-0.6107-0.9935-1.823-0.9935-1.221 0-1.85 1.003-0.6289 0.9935-0.6289 2.935 0 1.932 0.6289 2.935 0.6289 1.003 1.85 1.003 1.212 0 1.823-0.9935 0.6198-0.9935 0.6198-2.944z"/><path d="m459.4 293.7q-0.5378-0.4193-1.094-0.6107t-1.221-0.1914q-1.568 0-2.397 0.9844t-0.8294 2.844v5.077h-1.686v-10.21h1.686v1.996q0.4193-1.085 1.285-1.659 0.875-0.5833 2.069-0.5833 0.6198 0 1.158 0.155t1.03 0.4831z"/><path d="m465.7 292.8q-1.276 0-1.932 0.9935t-0.6562 2.944q0 1.941 0.6562 2.944 0.6562 0.9935 1.932 0.9935 1.285 0 1.941-0.9935 0.6562-1.003 0.6562-2.944 0-1.951-0.6562-2.944t-1.941-0.9935zm0-1.422q2.124 0 3.245 1.376 1.13 1.376 1.13 3.983 0 2.616-1.121 3.992-1.121 1.367-3.254 1.367-2.124 0-3.245-1.367-1.121-1.376-1.121-3.992 0-2.607 1.121-3.983 1.121-1.376 3.245-1.376z"/><path d="m472.2 291.6h1.741l2.962 8.568 2.971-8.568h1.741l-3.628 10.21h-2.16z"/><path d="m487 292.1h2.297v2.762h-2.297zm0 6.909h2.297v2.78h-2.297z"/><path d="m500.2 296.7h-0.556q-1.467 0-2.215 0.5195-0.7383 0.5104-0.7383 1.531 0 0.9206 0.556 1.431 0.556 0.5104 1.54 0.5104 1.385 0 2.178-0.957 0.793-0.9662 0.8021-2.661v-0.3737zm3.254-0.6927v5.824h-1.686v-1.513q-0.5378 0.9115-1.358 1.349-0.8112 0.4284-1.978 0.4284-1.559 0-2.488-0.875-0.9297-0.8841-0.9297-2.361 0-1.704 1.139-2.589 1.148-0.8841 3.363-0.8841h2.251v-0.2643q-9e-3 -1.221-0.6198-1.768-0.6107-0.556-1.951-0.556-0.8568 0-1.732 0.2461-0.875 0.2461-1.704 0.7201v-1.677q0.9297-0.3555 1.777-0.5286 0.8568-0.1823 1.659-0.1823 1.267 0 2.16 0.3737 0.9023 0.3737 1.458 1.121 0.3464 0.4557 0.4922 1.13 0.1458 0.6654 0.1458 2.005z"/><path d="m510.6 288.7v2.898h3.81v1.303h-3.81v5.542q0 1.13 0.4284 1.577 0.4284 0.4466 1.495 0.4466h1.887v1.34h-2.051q-1.887 0-2.661-0.7565-0.7748-0.7565-0.7748-2.607v-5.542h-2.725v-1.303h2.725v-2.898z"/><path d="m518.2 288.2h1.85v12.06h6.572v1.549h-8.422z"/><path d="m533.1 292.8q-1.276 0-1.932 0.9935-0.6563 0.9935-0.6563 2.944 0 1.941 0.6563 2.944 0.6562 0.9935 1.932 0.9935 1.285 0 1.941-0.9935 0.6562-1.003 0.6562-2.944 0-1.951-0.6562-2.944t-1.941-0.9935zm0-1.422q2.124 0 3.245 1.376 1.13 1.376 1.13 3.983 0 2.616-1.121 3.992-1.121 1.367-3.254 1.367-2.124 0-3.245-1.367-1.121-1.376-1.121-3.992 0-2.607 1.121-3.983 1.121-1.376 3.245-1.376z"/><path d="m548.4 301.3q-0.6745 0.3919-1.395 0.5833-0.7109 0.2005-1.458 0.2005-2.37 0-3.71-1.422-1.331-1.422-1.331-3.938t1.331-3.938q1.34-1.422 3.71-1.422 0.7383 0 1.44 0.1914t1.413 0.5924v1.759q-0.6654-0.5924-1.34-0.8568-0.6654-0.2643-1.513-0.2643-1.577 0-2.424 1.021-0.8477 1.021-0.8477 2.917 0 1.887 0.8477 2.917 0.8568 1.021 2.424 1.021 0.875 0 1.568-0.2643 0.6927-0.2734 1.285-0.8385z"/><path d="m556.4 296.7h-0.556q-1.467 0-2.215 0.5195-0.7383 0.5104-0.7383 1.531 0 0.9206 0.556 1.431 0.556 0.5104 1.54 0.5104 1.385 0 2.178-0.957 0.793-0.9662 0.8021-2.661v-0.3737zm3.254-0.6927v5.824h-1.686v-1.513q-0.5378 0.9115-1.358 1.349-0.8112 0.4284-1.978 0.4284-1.559 0-2.488-0.875-0.9297-0.8841-0.9297-2.361 0-1.704 1.139-2.589 1.148-0.8841 3.363-0.8841h2.251v-0.2643q-9e-3 -1.221-0.6198-1.768-0.6107-0.556-1.951-0.556-0.8568 0-1.732 0.2461-0.875 0.2461-1.704 0.7201v-1.677q0.9297-0.3555 1.777-0.5286 0.8568-0.1823 1.659-0.1823 1.267 0 2.16 0.3737 0.9024 0.3737 1.458 1.121 0.3464 0.4557 0.4922 1.13 0.1458 0.6654 0.1458 2.005z"/><path d="m566.8 288.7v2.898h3.81v1.303h-3.81v5.542q0 1.13 0.4284 1.577 0.4284 0.4466 1.495 0.4466h1.887v1.34h-2.051q-1.887 0-2.661-0.7565-0.7747-0.7565-0.7747-2.607v-5.542h-2.725v-1.303h2.725v-2.898z"/><path d="m574.8 291.6h4.293v8.905h3.327v1.303h-8.331v-1.303h3.327v-7.602h-2.616zm2.616-3.974h1.677v2.124h-1.677z"/><path d="m589.3 292.8q-1.276 0-1.932 0.9935t-0.6562 2.944q0 1.941 0.6562 2.944 0.6562 0.9935 1.932 0.9935 1.285 0 1.941-0.9935 0.6562-1.003 0.6562-2.944 0-1.951-0.6562-2.944t-1.941-0.9935zm0-1.422q2.124 0 3.245 1.376 1.13 1.376 1.13 3.983 0 2.616-1.121 3.992-1.121 1.367-3.254 1.367-2.124 0-3.245-1.367-1.121-1.376-1.121-3.992 0-2.607 1.121-3.983 1.121-1.376 3.245-1.376z"/><path d="m604.5 295.5v6.326h-1.686v-6.326q0-1.376-0.4831-2.023-0.4831-0.6471-1.513-0.6471-1.176 0-1.814 0.8385-0.6289 0.8294-0.6289 2.388v5.77h-1.677v-10.21h1.677v1.531q0.4466-0.875 1.212-1.322 0.7656-0.4557 1.814-0.4557 1.559 0 2.324 1.03 0.7747 1.021 0.7747 3.099z"/></g><path d="m148.8 53.92h36.94v10.67h-36.94z" fill="#aade87"/><g transform="matrix(.2646 0 0 .2646 35.22 -19.23)" style="shape-inside:url(#rect19581-9-9);white-space:pre" aria-label="dct:subject"><path d="m445.4 292.9v-5.277h1.677v14.18h-1.677v-1.285q-0.4193 0.7565-1.121 1.158-0.6927 0.3919-1.604 0.3919-1.85 0-2.917-1.431-1.057-1.44-1.057-3.965 0-2.488 1.066-3.901 1.066-1.422 2.908-1.422 0.9206 0 1.622 0.401 0.7018 0.3919 1.103 1.148zm-4.931 3.81q0 1.951 0.6198 2.944t1.832 0.9935 1.841-1.003q0.638-1.003 0.638-2.935 0-1.941-0.638-2.935-0.6289-1.003-1.841-1.003t-1.832 0.9935-0.6198 2.944z"/><path d="m458.5 301.3q-0.6745 0.3919-1.395 0.5833-0.7109 0.2005-1.458 0.2005-2.37 0-3.71-1.422-1.331-1.422-1.331-3.938t1.331-3.938q1.34-1.422 3.71-1.422 0.7383 0 1.44 0.1914 0.7018 0.1914 1.413 0.5924v1.759q-0.6654-0.5924-1.34-0.8568-0.6654-0.2643-1.513-0.2643-1.577 0-2.424 1.021-0.8477 1.021-0.8477 2.917 0 1.887 0.8477 2.917 0.8568 1.021 2.424 1.021 0.875 0 1.568-0.2643 0.6927-0.2734 1.285-0.8385z"/><path d="m465.7 288.7v2.898h3.81v1.303h-3.81v5.542q0 1.13 0.4284 1.577 0.4284 0.4466 1.495 0.4466h1.887v1.34h-2.051q-1.887 0-2.661-0.7565-0.7747-0.7565-0.7747-2.607v-5.542h-2.725v-1.303h2.725v-2.898z"/><path d="m475.8 292.1h2.297v2.762h-2.297zm0 6.909h2.297v2.78h-2.297z"/><path d="m491.4 291.9v1.641q-0.7201-0.4193-1.449-0.6289-0.7292-0.2096-1.486-0.2096-1.139 0-1.704 0.3737-0.556 0.3646-0.556 1.121 0 0.6836 0.4193 1.021t2.087 0.6562l0.6745 0.1276q1.249 0.237 1.887 0.9479 0.6471 0.7109 0.6471 1.85 0 1.513-1.076 2.37-1.076 0.8477-2.99 0.8477-0.7565 0-1.586-0.1641-0.8294-0.155-1.796-0.474v-1.732q0.9388 0.4831 1.796 0.7292 0.8568 0.237 1.622 0.237 1.112 0 1.723-0.4466 0.6107-0.4557 0.6107-1.267 0-1.167-2.233-1.613l-0.0729-0.0182-0.6289-0.1276q-1.449-0.2826-2.115-0.9479-0.6654-0.6745-0.6654-1.832 0-1.467 0.9935-2.26 0.9935-0.8021 2.835-0.8021 0.8203 0 1.577 0.155 0.7565 0.1458 1.486 0.4466z"/><path d="m495.6 297.9v-6.326h1.677v6.326q0 1.376 0.4831 2.023 0.4922 0.6471 1.513 0.6471 1.185 0 1.814-0.8294 0.6289-0.8386 0.6289-2.397v-5.77h1.686v10.19h-1.686v-1.531q-0.4466 0.8841-1.221 1.34-0.7656 0.4557-1.796 0.4557-1.568 0-2.333-1.021-0.7656-1.03-0.7656-3.108z"/><path d="m513.4 296.7q0-1.951-0.6198-2.944-0.6198-0.9935-1.832-0.9935-1.221 0-1.85 1.003-0.6289 0.9935-0.6289 2.935 0 1.932 0.6289 2.935 0.6289 1.003 1.85 1.003 1.212 0 1.832-0.9935 0.6198-0.9935 0.6198-2.944zm-4.931-3.81q0.401-0.7474 1.103-1.148 0.7109-0.401 1.641-0.401 1.841 0 2.898 1.422 1.057 1.413 1.057 3.901 0 2.525-1.066 3.965-1.057 1.431-2.908 1.431-0.9115 0-1.613-0.3919-0.6927-0.401-1.112-1.158v1.285h-1.677v-14.18h1.677z"/><path d="m521.8 302v-9.087h-2.889v-1.303h4.566v10.39q0 1.777-0.8203 2.734-0.8112 0.9662-2.315 0.9662h-2.315v-1.422h2.133q0.8203 0 1.23-0.5742 0.4102-0.5651 0.4102-1.704zm0-14.36h1.677v2.124h-1.677z"/><path d="m537.7 296.3v0.8203h-7.264v0.0547q0 1.668 0.8659 2.579 0.875 0.9115 2.461 0.9115 0.8021 0 1.677-0.2552 0.875-0.2552 1.868-0.7748v1.668q-0.957 0.3919-1.85 0.5833-0.8841 0.2005-1.714 0.2005-2.379 0-3.719-1.422-1.34-1.431-1.34-3.938 0-2.443 1.313-3.901 1.312-1.458 3.5-1.458 1.951 0 3.072 1.322 1.13 1.322 1.13 3.609zm-1.677-0.4922q-0.0365-1.477-0.7018-2.242-0.6562-0.7747-1.896-0.7747-1.212 0-1.996 0.8021-0.7839 0.8021-0.9297 2.224z"/><path d="m548.4 301.3q-0.6745 0.3919-1.395 0.5833-0.7109 0.2005-1.458 0.2005-2.37 0-3.71-1.422-1.331-1.422-1.331-3.938t1.331-3.938q1.34-1.422 3.71-1.422 0.7383 0 1.44 0.1914t1.413 0.5924v1.759q-0.6654-0.5924-1.34-0.8568-0.6654-0.2643-1.513-0.2643-1.577 0-2.424 1.021-0.8477 1.021-0.8477 2.917 0 1.887 0.8477 2.917 0.8568 1.021 2.424 1.021 0.875 0 1.568-0.2643 0.6927-0.2734 1.285-0.8385z"/><path d="m555.6 288.7v2.898h3.81v1.303h-3.81v5.542q0 1.13 0.4284 1.577 0.4284 0.4466 1.495 0.4466h1.887v1.34h-2.051q-1.887 0-2.661-0.7565-0.7747-0.7565-0.7747-2.607v-5.542h-2.725v-1.303h2.725v-2.898z"/></g><path d="m213.3 6.307h62.16v17.42h-62.16z" fill="#ffd42a" stroke="#000" stroke-dasharray="3.99999, 1"/><g transform="matrix(.2646 0 0 .2646 101.8 -63.47)" style="shape-inside:url(#rect19581-8);white-space:pre" aria-label="Literal xsd:String"><path d="m439.6 288.2h1.85v12.06h6.572v1.549h-8.422z"/><path d="m451.2 291.6h4.293v8.905h3.327v1.303h-8.331v-1.303h3.327v-7.602h-2.616zm2.616-3.974h1.677v2.124h-1.677z"/><path d="m465.7 288.7v2.898h3.81v1.303h-3.81v5.542q0 1.13 0.4284 1.577 0.4284 0.4466 1.495 0.4466h1.887v1.34h-2.051q-1.887 0-2.661-0.7565-0.7747-0.7565-0.7747-2.607v-5.542h-2.725v-1.303h2.725v-2.898z"/><path d="m481.5 296.3v0.8203h-7.264v0.0547q0 1.668 0.8659 2.579 0.875 0.9115 2.461 0.9115 0.8021 0 1.677-0.2552 0.875-0.2552 1.868-0.7748v1.668q-0.957 0.3919-1.85 0.5833-0.8841 0.2005-1.714 0.2005-2.379 0-3.719-1.422-1.34-1.431-1.34-3.938 0-2.443 1.312-3.901 1.312-1.458 3.5-1.458 1.951 0 3.072 1.322 1.13 1.322 1.13 3.609zm-1.677-0.4922q-0.0365-1.477-0.7018-2.242-0.6562-0.7747-1.896-0.7747-1.212 0-1.996 0.8021-0.7838 0.8021-0.9297 2.224z"/><path d="m493.1 293.7q-0.5378-0.4193-1.094-0.6107t-1.221-0.1914q-1.568 0-2.397 0.9844t-0.8294 2.844v5.077h-1.686v-10.21h1.686v1.996q0.4193-1.085 1.285-1.659 0.875-0.5833 2.069-0.5833 0.6198 0 1.158 0.155 0.5378 0.155 1.03 0.4831z"/><path d="m500.2 296.7h-0.556q-1.467 0-2.215 0.5195-0.7383 0.5104-0.7383 1.531 0 0.9206 0.556 1.431 0.556 0.5104 1.54 0.5104 1.385 0 2.178-0.957 0.793-0.9662 0.8021-2.661v-0.3737zm3.254-0.6927v5.824h-1.686v-1.513q-0.5378 0.9115-1.358 1.349-0.8112 0.4284-1.978 0.4284-1.559 0-2.488-0.875-0.9297-0.8841-0.9297-2.361 0-1.704 1.139-2.589 1.148-0.8841 3.363-0.8841h2.251v-0.2643q-9e-3 -1.221-0.6198-1.768-0.6107-0.556-1.951-0.556-0.8568 0-1.732 0.2461-0.875 0.2461-1.704 0.7201v-1.677q0.9297-0.3555 1.777-0.5286 0.8568-0.1823 1.659-0.1823 1.267 0 2.16 0.3737 0.9023 0.3737 1.458 1.121 0.3464 0.4557 0.4922 1.13 0.1458 0.6654 0.1458 2.005z"/><path d="m510.9 298.1q0 1.13 0.4102 1.704 0.4193 0.5742 1.23 0.5742h1.96v1.422h-2.124q-1.504 0-2.333-0.9662-0.8203-0.9662-0.8203-2.734v-9.27h-2.689v-1.312h4.366z"/><path d="m537.7 291.6-3.655 4.885 4.01 5.323h-1.941l-2.99-4.092-2.98 4.092h-1.941l4.01-5.323-3.655-4.885h1.859l2.707 3.691 2.689-3.691z"/><path d="m547.6 291.9v1.641q-0.7201-0.4193-1.449-0.6289-0.7292-0.2096-1.486-0.2096-1.139 0-1.704 0.3737-0.556 0.3646-0.556 1.121 0 0.6836 0.4193 1.021t2.087 0.6562l0.6745 0.1276q1.249 0.237 1.887 0.9479 0.6471 0.7109 0.6471 1.85 0 1.513-1.076 2.37-1.076 0.8477-2.99 0.8477-0.7565 0-1.586-0.1641-0.8294-0.155-1.796-0.474v-1.732q0.9388 0.4831 1.796 0.7292 0.8568 0.237 1.622 0.237 1.112 0 1.723-0.4466 0.6107-0.4557 0.6107-1.267 0-1.167-2.233-1.613l-0.0729-0.0182-0.6289-0.1276q-1.449-0.2826-2.115-0.9479-0.6654-0.6745-0.6654-1.832 0-1.467 0.9935-2.26 0.9935-0.8021 2.835-0.8021 0.8203 0 1.577 0.155 0.7565 0.1458 1.486 0.4466z"/><path d="m557.8 292.9v-5.277h1.677v14.18h-1.677v-1.285q-0.4193 0.7565-1.121 1.158-0.6927 0.3919-1.604 0.3919-1.85 0-2.917-1.431-1.057-1.44-1.057-3.965 0-2.488 1.066-3.901 1.066-1.422 2.908-1.422 0.9206 0 1.622 0.401 0.7018 0.3919 1.103 1.148zm-4.931 3.81q0 1.951 0.6198 2.944t1.832 0.9935q1.212 0 1.841-1.003 0.638-1.003 0.638-2.935 0-1.941-0.638-2.935-0.6289-1.003-1.841-1.003-1.212 0-1.832 0.9935t-0.6198 2.944z"/><path d="m565.7 292.1h2.297v2.762h-2.297zm0 6.909h2.297v2.78h-2.297z"/><path d="m581.7 288.6v1.868q-0.8385-0.5378-1.686-0.8112-0.8385-0.2734-1.695-0.2734-1.303 0-2.06 0.6107-0.7565 0.6016-0.7565 1.632 0 0.9024 0.4922 1.376 0.5013 0.474 1.859 0.793l0.9662 0.2188q1.914 0.4466 2.789 1.404 0.875 0.957 0.875 2.607 0 1.941-1.203 2.962-1.203 1.021-3.5 1.021-0.957 0-1.923-0.2096-0.9661-0.2005-1.941-0.6107v-1.96q1.048 0.6654 1.978 0.9753 0.9388 0.3099 1.887 0.3099 1.395 0 2.169-0.6198 0.7747-0.6289 0.7747-1.75 0-1.021-0.5378-1.559-0.5286-0.5378-1.85-0.8294l-0.9844-0.2279q-1.896-0.4284-2.753-1.294t-0.8568-2.324q0-1.823 1.221-2.917 1.23-1.103 3.263-1.103 0.7838 0 1.65 0.1823 0.8659 0.1732 1.823 0.5286z"/><path d="m589.3 288.7v2.898h3.81v1.303h-3.81v5.542q0 1.13 0.4284 1.577 0.4284 0.4466 1.495 0.4466h1.887v1.34h-2.051q-1.887 0-2.661-0.7565-0.7747-0.7565-0.7747-2.607v-5.542h-2.725v-1.303h2.725v-2.898z"/><path d="m605.5 293.7q-0.5378-0.4193-1.094-0.6107t-1.221-0.1914q-1.568 0-2.397 0.9844-0.8294 0.9844-0.8294 2.844v5.077h-1.686v-10.21h1.686v1.996q0.4193-1.085 1.285-1.659 0.875-0.5833 2.069-0.5833 0.6198 0 1.158 0.155t1.03 0.4831z"/><path d="m608.5 291.6h4.293v8.905h3.327v1.303h-8.331v-1.303h3.327v-7.602h-2.616zm2.616-3.974h1.677v2.124h-1.677z"/><path d="m627 295.5v6.326h-1.686v-6.326q0-1.376-0.4831-2.023-0.4831-0.6471-1.513-0.6471-1.176 0-1.814 0.8385-0.6289 0.8294-0.6289 2.388v5.77h-1.677v-10.21h1.677v1.531q0.4466-0.875 1.212-1.322 0.7656-0.4557 1.814-0.4557 1.559 0 2.324 1.03 0.7747 1.021 0.7747 3.099z"/><path d="m636.5 296.6q0-1.887-0.6198-2.862-0.6107-0.9844-1.786-0.9844-1.23 0-1.878 0.9844-0.6471 0.9753-0.6471 2.862t0.6471 2.88q0.6562 0.9844 1.896 0.9844 1.158 0 1.768-0.9935 0.6198-0.9935 0.6198-2.871zm1.677 4.53q0 2.297-1.085 3.482-1.085 1.185-3.19 1.185-0.6927 0-1.449-0.1276-0.7565-0.1276-1.513-0.3737v-1.659q0.8932 0.4193 1.622 0.6198 0.7292 0.2005 1.34 0.2005 1.358 0 1.978-0.7383 0.6198-0.7383 0.6198-2.342v-1.212q-0.401 0.8568-1.094 1.276-0.6927 0.4193-1.686 0.4193-1.786 0-2.853-1.431-1.066-1.431-1.066-3.828 0-2.406 1.066-3.837 1.066-1.431 2.853-1.431 0.9844 0 1.668 0.3919 0.6836 0.3919 1.112 1.212v-1.322h1.677z"/></g><path d="m213.3 32.94h62.16v17.42h-62.16z" fill="#ffd42a" stroke="#000" stroke-dasharray="3.99999, 1"/><g transform="matrix(.2646 0 0 .2646 101.8 -36.84)" style="shape-inside:url(#rect19581-8-7);white-space:pre" aria-label="Literal xsd:String"><path d="m439.6 288.2h1.85v12.06h6.572v1.549h-8.422z"/><path d="m451.2 291.6h4.293v8.905h3.327v1.303h-8.331v-1.303h3.327v-7.602h-2.616zm2.616-3.974h1.677v2.124h-1.677z"/><path d="m465.7 288.7v2.898h3.81v1.303h-3.81v5.542q0 1.13 0.4284 1.577 0.4284 0.4466 1.495 0.4466h1.887v1.34h-2.051q-1.887 0-2.661-0.7565-0.7747-0.7565-0.7747-2.607v-5.542h-2.725v-1.303h2.725v-2.898z"/><path d="m481.5 296.3v0.8203h-7.264v0.0547q0 1.668 0.8659 2.579 0.875 0.9115 2.461 0.9115 0.8021 0 1.677-0.2552 0.875-0.2552 1.868-0.7748v1.668q-0.957 0.3919-1.85 0.5833-0.8841 0.2005-1.714 0.2005-2.379 0-3.719-1.422-1.34-1.431-1.34-3.938 0-2.443 1.312-3.901 1.312-1.458 3.5-1.458 1.951 0 3.072 1.322 1.13 1.322 1.13 3.609zm-1.677-0.4922q-0.0365-1.477-0.7018-2.242-0.6562-0.7747-1.896-0.7747-1.212 0-1.996 0.8021-0.7838 0.8021-0.9297 2.224z"/><path d="m493.1 293.7q-0.5378-0.4193-1.094-0.6107t-1.221-0.1914q-1.568 0-2.397 0.9844t-0.8294 2.844v5.077h-1.686v-10.21h1.686v1.996q0.4193-1.085 1.285-1.659 0.875-0.5833 2.069-0.5833 0.6198 0 1.158 0.155 0.5378 0.155 1.03 0.4831z"/><path d="m500.2 296.7h-0.556q-1.467 0-2.215 0.5195-0.7383 0.5104-0.7383 1.531 0 0.9206 0.556 1.431 0.556 0.5104 1.54 0.5104 1.385 0 2.178-0.957 0.793-0.9662 0.8021-2.661v-0.3737zm3.254-0.6927v5.824h-1.686v-1.513q-0.5378 0.9115-1.358 1.349-0.8112 0.4284-1.978 0.4284-1.559 0-2.488-0.875-0.9297-0.8841-0.9297-2.361 0-1.704 1.139-2.589 1.148-0.8841 3.363-0.8841h2.251v-0.2643q-9e-3 -1.221-0.6198-1.768-0.6107-0.556-1.951-0.556-0.8568 0-1.732 0.2461-0.875 0.2461-1.704 0.7201v-1.677q0.9297-0.3555 1.777-0.5286 0.8568-0.1823 1.659-0.1823 1.267 0 2.16 0.3737 0.9023 0.3737 1.458 1.121 0.3464 0.4557 0.4922 1.13 0.1458 0.6654 0.1458 2.005z"/><path d="m510.9 298.1q0 1.13 0.4102 1.704 0.4193 0.5742 1.23 0.5742h1.96v1.422h-2.124q-1.504 0-2.333-0.9662-0.8203-0.9662-0.8203-2.734v-9.27h-2.689v-1.312h4.366z"/><path d="m537.7 291.6-3.655 4.885 4.01 5.323h-1.941l-2.99-4.092-2.98 4.092h-1.941l4.01-5.323-3.655-4.885h1.859l2.707 3.691 2.689-3.691z"/><path d="m547.6 291.9v1.641q-0.7201-0.4193-1.449-0.6289-0.7292-0.2096-1.486-0.2096-1.139 0-1.704 0.3737-0.556 0.3646-0.556 1.121 0 0.6836 0.4193 1.021t2.087 0.6562l0.6745 0.1276q1.249 0.237 1.887 0.9479 0.6471 0.7109 0.6471 1.85 0 1.513-1.076 2.37-1.076 0.8477-2.99 0.8477-0.7565 0-1.586-0.1641-0.8294-0.155-1.796-0.474v-1.732q0.9388 0.4831 1.796 0.7292 0.8568 0.237 1.622 0.237 1.112 0 1.723-0.4466 0.6107-0.4557 0.6107-1.267 0-1.167-2.233-1.613l-0.0729-0.0182-0.6289-0.1276q-1.449-0.2826-2.115-0.9479-0.6654-0.6745-0.6654-1.832 0-1.467 0.9935-2.26 0.9935-0.8021 2.835-0.8021 0.8203 0 1.577 0.155 0.7565 0.1458 1.486 0.4466z"/><path d="m557.8 292.9v-5.277h1.677v14.18h-1.677v-1.285q-0.4193 0.7565-1.121 1.158-0.6927 0.3919-1.604 0.3919-1.85 0-2.917-1.431-1.057-1.44-1.057-3.965 0-2.488 1.066-3.901 1.066-1.422 2.908-1.422 0.9206 0 1.622 0.401 0.7018 0.3919 1.103 1.148zm-4.931 3.81q0 1.951 0.6198 2.944t1.832 0.9935q1.212 0 1.841-1.003 0.638-1.003 0.638-2.935 0-1.941-0.638-2.935-0.6289-1.003-1.841-1.003-1.212 0-1.832 0.9935t-0.6198 2.944z"/><path d="m565.7 292.1h2.297v2.762h-2.297zm0 6.909h2.297v2.78h-2.297z"/><path d="m581.7 288.6v1.868q-0.8385-0.5378-1.686-0.8112-0.8385-0.2734-1.695-0.2734-1.303 0-2.06 0.6107-0.7565 0.6016-0.7565 1.632 0 0.9024 0.4922 1.376 0.5013 0.474 1.859 0.793l0.9662 0.2188q1.914 0.4466 2.789 1.404 0.875 0.957 0.875 2.607 0 1.941-1.203 2.962-1.203 1.021-3.5 1.021-0.957 0-1.923-0.2096-0.9661-0.2005-1.941-0.6107v-1.96q1.048 0.6654 1.978 0.9753 0.9388 0.3099 1.887 0.3099 1.395 0 2.169-0.6198 0.7747-0.6289 0.7747-1.75 0-1.021-0.5378-1.559-0.5286-0.5378-1.85-0.8294l-0.9844-0.2279q-1.896-0.4284-2.753-1.294t-0.8568-2.324q0-1.823 1.221-2.917 1.23-1.103 3.263-1.103 0.7838 0 1.65 0.1823 0.8659 0.1732 1.823 0.5286z"/><path d="m589.3 288.7v2.898h3.81v1.303h-3.81v5.542q0 1.13 0.4284 1.577 0.4284 0.4466 1.495 0.4466h1.887v1.34h-2.051q-1.887 0-2.661-0.7565-0.7747-0.7565-0.7747-2.607v-5.542h-2.725v-1.303h2.725v-2.898z"/><path d="m605.5 293.7q-0.5378-0.4193-1.094-0.6107t-1.221-0.1914q-1.568 0-2.397 0.9844-0.8294 0.9844-0.8294 2.844v5.077h-1.686v-10.21h1.686v1.996q0.4193-1.085 1.285-1.659 0.875-0.5833 2.069-0.5833 0.6198 0 1.158 0.155t1.03 0.4831z"/><path d="m608.5 291.6h4.293v8.905h3.327v1.303h-8.331v-1.303h3.327v-7.602h-2.616zm2.616-3.974h1.677v2.124h-1.677z"/><path d="m627 295.5v6.326h-1.686v-6.326q0-1.376-0.4831-2.023-0.4831-0.6471-1.513-0.6471-1.176 0-1.814 0.8385-0.6289 0.8294-0.6289 2.388v5.77h-1.677v-10.21h1.677v1.531q0.4466-0.875 1.212-1.322 0.7656-0.4557 1.814-0.4557 1.559 0 2.324 1.03 0.7747 1.021 0.7747 3.099z"/><path d="m636.5 296.6q0-1.887-0.6198-2.862-0.6107-0.9844-1.786-0.9844-1.23 0-1.878 0.9844-0.6471 0.9753-0.6471 2.862t0.6471 2.88q0.6562 0.9844 1.896 0.9844 1.158 0 1.768-0.9935 0.6198-0.9935 0.6198-2.871zm1.677 4.53q0 2.297-1.085 3.482-1.085 1.185-3.19 1.185-0.6927 0-1.449-0.1276-0.7565-0.1276-1.513-0.3737v-1.659q0.8932 0.4193 1.622 0.6198 0.7292 0.2005 1.34 0.2005 1.358 0 1.978-0.7383 0.6198-0.7383 0.6198-2.342v-1.212q-0.401 0.8568-1.094 1.276-0.6927 0.4193-1.686 0.4193-1.786 0-2.853-1.431-1.066-1.431-1.066-3.828 0-2.406 1.066-3.837 1.066-1.431 2.853-1.431 0.9844 0 1.668 0.3919 0.6836 0.3919 1.112 1.212v-1.322h1.677z"/></g><path d="m213.3 58.88h62.16v17.42h-62.16z" fill="#ffd42a" stroke="#000" stroke-dasharray="3.99999, 1"/><g transform="matrix(.2646 0 0 .2646 101.8 -10.9)" style="shape-inside:url(#rect19581-8-7-1);white-space:pre" aria-label="Literal xsd:String"><path d="m439.6 288.2h1.85v12.06h6.572v1.549h-8.422z"/><path d="m451.2 291.6h4.293v8.905h3.327v1.303h-8.331v-1.303h3.327v-7.602h-2.616zm2.616-3.974h1.677v2.124h-1.677z"/><path d="m465.7 288.7v2.898h3.81v1.303h-3.81v5.542q0 1.13 0.4284 1.577 0.4284 0.4466 1.495 0.4466h1.887v1.34h-2.051q-1.887 0-2.661-0.7565-0.7747-0.7565-0.7747-2.607v-5.542h-2.725v-1.303h2.725v-2.898z"/><path d="m481.5 296.3v0.8203h-7.264v0.0547q0 1.668 0.8659 2.579 0.875 0.9115 2.461 0.9115 0.8021 0 1.677-0.2552 0.875-0.2552 1.868-0.7748v1.668q-0.957 0.3919-1.85 0.5833-0.8841 0.2005-1.714 0.2005-2.379 0-3.719-1.422-1.34-1.431-1.34-3.938 0-2.443 1.312-3.901 1.312-1.458 3.5-1.458 1.951 0 3.072 1.322 1.13 1.322 1.13 3.609zm-1.677-0.4922q-0.0365-1.477-0.7018-2.242-0.6562-0.7747-1.896-0.7747-1.212 0-1.996 0.8021-0.7838 0.8021-0.9297 2.224z"/><path d="m493.1 293.7q-0.5378-0.4193-1.094-0.6107t-1.221-0.1914q-1.568 0-2.397 0.9844t-0.8294 2.844v5.077h-1.686v-10.21h1.686v1.996q0.4193-1.085 1.285-1.659 0.875-0.5833 2.069-0.5833 0.6198 0 1.158 0.155 0.5378 0.155 1.03 0.4831z"/><path d="m500.2 296.7h-0.556q-1.467 0-2.215 0.5195-0.7383 0.5104-0.7383 1.531 0 0.9206 0.556 1.431 0.556 0.5104 1.54 0.5104 1.385 0 2.178-0.957 0.793-0.9662 0.8021-2.661v-0.3737zm3.254-0.6927v5.824h-1.686v-1.513q-0.5378 0.9115-1.358 1.349-0.8112 0.4284-1.978 0.4284-1.559 0-2.488-0.875-0.9297-0.8841-0.9297-2.361 0-1.704 1.139-2.589 1.148-0.8841 3.363-0.8841h2.251v-0.2643q-9e-3 -1.221-0.6198-1.768-0.6107-0.556-1.951-0.556-0.8568 0-1.732 0.2461-0.875 0.2461-1.704 0.7201v-1.677q0.9297-0.3555 1.777-0.5286 0.8568-0.1823 1.659-0.1823 1.267 0 2.16 0.3737 0.9023 0.3737 1.458 1.121 0.3464 0.4557 0.4922 1.13 0.1458 0.6654 0.1458 2.005z"/><path d="m510.9 298.1q0 1.13 0.4102 1.704 0.4193 0.5742 1.23 0.5742h1.96v1.422h-2.124q-1.504 0-2.333-0.9662-0.8203-0.9662-0.8203-2.734v-9.27h-2.689v-1.312h4.366z"/><path d="m537.7 291.6-3.655 4.885 4.01 5.323h-1.941l-2.99-4.092-2.98 4.092h-1.941l4.01-5.323-3.655-4.885h1.859l2.707 3.691 2.689-3.691z"/><path d="m547.6 291.9v1.641q-0.7201-0.4193-1.449-0.6289-0.7292-0.2096-1.486-0.2096-1.139 0-1.704 0.3737-0.556 0.3646-0.556 1.121 0 0.6836 0.4193 1.021t2.087 0.6562l0.6745 0.1276q1.249 0.237 1.887 0.9479 0.6471 0.7109 0.6471 1.85 0 1.513-1.076 2.37-1.076 0.8477-2.99 0.8477-0.7565 0-1.586-0.1641-0.8294-0.155-1.796-0.474v-1.732q0.9388 0.4831 1.796 0.7292 0.8568 0.237 1.622 0.237 1.112 0 1.723-0.4466 0.6107-0.4557 0.6107-1.267 0-1.167-2.233-1.613l-0.0729-0.0182-0.6289-0.1276q-1.449-0.2826-2.115-0.9479-0.6654-0.6745-0.6654-1.832 0-1.467 0.9935-2.26 0.9935-0.8021 2.835-0.8021 0.8203 0 1.577 0.155 0.7565 0.1458 1.486 0.4466z"/><path d="m557.8 292.9v-5.277h1.677v14.18h-1.677v-1.285q-0.4193 0.7565-1.121 1.158-0.6927 0.3919-1.604 0.3919-1.85 0-2.917-1.431-1.057-1.44-1.057-3.965 0-2.488 1.066-3.901 1.066-1.422 2.908-1.422 0.9206 0 1.622 0.401 0.7018 0.3919 1.103 1.148zm-4.931 3.81q0 1.951 0.6198 2.944t1.832 0.9935q1.212 0 1.841-1.003 0.638-1.003 0.638-2.935 0-1.941-0.638-2.935-0.6289-1.003-1.841-1.003-1.212 0-1.832 0.9935t-0.6198 2.944z"/><path d="m565.7 292.1h2.297v2.762h-2.297zm0 6.909h2.297v2.78h-2.297z"/><path d="m581.7 288.6v1.868q-0.8385-0.5378-1.686-0.8112-0.8385-0.2734-1.695-0.2734-1.303 0-2.06 0.6107-0.7565 0.6016-0.7565 1.632 0 0.9024 0.4922 1.376 0.5013 0.474 1.859 0.793l0.9662 0.2188q1.914 0.4466 2.789 1.404 0.875 0.957 0.875 2.607 0 1.941-1.203 2.962-1.203 1.021-3.5 1.021-0.957 0-1.923-0.2096-0.9661-0.2005-1.941-0.6107v-1.96q1.048 0.6654 1.978 0.9753 0.9388 0.3099 1.887 0.3099 1.395 0 2.169-0.6198 0.7747-0.6289 0.7747-1.75 0-1.021-0.5378-1.559-0.5286-0.5378-1.85-0.8294l-0.9844-0.2279q-1.896-0.4284-2.753-1.294t-0.8568-2.324q0-1.823 1.221-2.917 1.23-1.103 3.263-1.103 0.7838 0 1.65 0.1823 0.8659 0.1732 1.823 0.5286z"/><path d="m589.3 288.7v2.898h3.81v1.303h-3.81v5.542q0 1.13 0.4284 1.577 0.4284 0.4466 1.495 0.4466h1.887v1.34h-2.051q-1.887 0-2.661-0.7565-0.7747-0.7565-0.7747-2.607v-5.542h-2.725v-1.303h2.725v-2.898z"/><path d="m605.5 293.7q-0.5378-0.4193-1.094-0.6107t-1.221-0.1914q-1.568 0-2.397 0.9844-0.8294 0.9844-0.8294 2.844v5.077h-1.686v-10.21h1.686v1.996q0.4193-1.085 1.285-1.659 0.875-0.5833 2.069-0.5833 0.6198 0 1.158 0.155t1.03 0.4831z"/><path d="m608.5 291.6h4.293v8.905h3.327v1.303h-8.331v-1.303h3.327v-7.602h-2.616zm2.616-3.974h1.677v2.124h-1.677z"/><path d="m627 295.5v6.326h-1.686v-6.326q0-1.376-0.4831-2.023-0.4831-0.6471-1.513-0.6471-1.176 0-1.814 0.8385-0.6289 0.8294-0.6289 2.388v5.77h-1.677v-10.21h1.677v1.531q0.4466-0.875 1.212-1.322 0.7656-0.4557 1.814-0.4557 1.559 0 2.324 1.03 0.7747 1.021 0.7747 3.099z"/><path d="m636.5 296.6q0-1.887-0.6198-2.862-0.6107-0.9844-1.786-0.9844-1.23 0-1.878 0.9844-0.6471 0.9753-0.6471 2.862t0.6471 2.88q0.6562 0.9844 1.896 0.9844 1.158 0 1.768-0.9935 0.6198-0.9935 0.6198-2.871zm1.677 4.53q0 2.297-1.085 3.482-1.085 1.185-3.19 1.185-0.6927 0-1.449-0.1276-0.7565-0.1276-1.513-0.3737v-1.659q0.8932 0.4193 1.622 0.6198 0.7292 0.2005 1.34 0.2005 1.358 0 1.978-0.7383 0.6198-0.7383 0.6198-2.342v-1.212q-0.401 0.8568-1.094 1.276-0.6927 0.4193-1.686 0.4193-1.786 0-2.853-1.431-1.066-1.431-1.066-3.828 0-2.406 1.066-3.837 1.066-1.431 2.853-1.431 0.9844 0 1.668 0.3919 0.6836 0.3919 1.112 1.212v-1.322h1.677z"/></g><path d="m227.9 161.1a24.5 24.5 0 0 1-24.5 24.5 24.5 24.5 0 0 1-24.5-24.5 24.5 24.5 0 0 1 24.5-24.5 24.5 24.5 0 0 1 24.5 24.5z" fill="#acf" stroke="#000"/><g transform="translate(-32.42 2.277)" stroke-width=".2646" style="inline-size:46.8901;white-space:pre" aria-label="ext:Submission DocumentStatus"><path d="m217.8 156.8v0.217h-1.922v0.0145q0 0.4413 0.2291 0.6825 0.2315 0.2412 0.6511 0.2412 0.2122 0 0.4437-0.0675t0.4944-0.205v0.4413q-0.2532 0.1037-0.4896 0.1543-0.2339 0.0531-0.4534 0.0531-0.6294 0-0.9839-0.3762-0.3545-0.3786-0.3545-1.042 0-0.6463 0.3473-1.032 0.3473-0.3858 0.926-0.3858 0.5161 0 0.8127 0.3497 0.299 0.3497 0.299 0.955zm-0.4437-0.1302q-0.01-0.3907-0.1857-0.5932-0.1736-0.205-0.5016-0.205-0.3207 0-0.5281 0.2122-0.2074 0.2122-0.246 0.5884z"/><path d="m220.8 155.5-0.967 1.293 1.061 1.408h-0.5137l-0.791-1.083-0.7886 1.083h-0.5137l1.061-1.408-0.967-1.293h0.492l0.7162 0.9767 0.7114-0.9767z"/><path d="m222.5 154.8v0.7669h1.008v0.3448h-1.008v1.466q0 0.299 0.1133 0.4172 0.1134 0.1182 0.3955 0.1182h0.4992v0.3545h-0.5426q-0.4992 0-0.7042-0.2002-0.205-0.2002-0.205-0.6897v-1.466h-0.7211v-0.3448h0.7211v-0.7669z"/><path d="m225.2 155.7h0.6077v0.7307h-0.6077zm0 1.828h0.6077v0.7355h-0.6077z"/><path d="m229.4 154.8v0.4944q-0.2219-0.1423-0.4461-0.2146-0.2219-0.0723-0.4486-0.0723-0.3449 0-0.545 0.1616-0.2002 0.1592-0.2002 0.4317 0 0.2388 0.1302 0.3642 0.1326 0.1254 0.492 0.2098l0.2556 0.0579q0.5064 0.1182 0.7379 0.3714 0.2315 0.2532 0.2315 0.6897 0 0.5137-0.3183 0.7838-0.3183 0.2701-0.926 0.2701-0.2532 0-0.5088-0.0555-0.2556-0.0531-0.5137-0.1616v-0.5185q0.2773 0.176 0.5233 0.258 0.2484 0.082 0.4992 0.082 0.369 0 0.574-0.164 0.205-0.1664 0.205-0.463 0-0.2701-0.1423-0.4124-0.1399-0.1423-0.4896-0.2194l-0.2604-0.0603q-0.5016-0.1133-0.7283-0.3424t-0.2267-0.615q0-0.4823 0.3232-0.7717 0.3256-0.2918 0.8633-0.2918 0.2074 0 0.4365 0.0482 0.2291 0.0458 0.4823 0.1399z"/><path d="m230.4 157.2v-1.674h0.4437v1.674q0 0.3641 0.1278 0.5354 0.1302 0.1712 0.4003 0.1712 0.3135 0 0.4799-0.2195 0.1664-0.2219 0.1664-0.6342v-1.527h0.4461v2.696h-0.4461v-0.4051q-0.1182 0.2339-0.3232 0.3545-0.2026 0.1206-0.4751 0.1206-0.4148 0-0.6174-0.2701-0.2026-0.2725-0.2026-0.8223z"/><path d="m235.2 156.9q0-0.5161-0.164-0.7789t-0.4847-0.2629q-0.3232 0-0.4896 0.2653-0.1664 0.2629-0.1664 0.7765 0 0.5113 0.1664 0.7765 0.1664 0.2653 0.4896 0.2653 0.3207 0 0.4847-0.2629t0.164-0.7789zm-1.305-1.008q0.1061-0.1978 0.2918-0.3039 0.1881-0.1061 0.4341-0.1061 0.4871 0 0.7669 0.3762 0.2797 0.3738 0.2797 1.032 0 0.668-0.2822 1.049-0.2797 0.3786-0.7693 0.3786-0.2412 0-0.4268-0.1037-0.1833-0.1061-0.2942-0.3063v0.34h-0.4437v-3.752h0.4437z"/><path d="m237.6 155.8q0.082-0.1736 0.2074-0.2556 0.1278-0.0844 0.3063-0.0844 0.3256 0 0.4582 0.2532 0.135 0.2508 0.135 0.9477v1.565h-0.4051v-1.546q0-0.5716-0.0651-0.709-0.0627-0.1399-0.2315-0.1399-0.1929 0-0.2653 0.1495-0.0699 0.1471-0.0699 0.6994v1.546h-0.4052v-1.546q0-0.5788-0.0699-0.7138-0.0675-0.135-0.246-0.135-0.176 0-0.246 0.1495-0.0675 0.1471-0.0675 0.6994v1.546h-0.4027v-2.701h0.4027v0.2315q0.0796-0.1447 0.1978-0.2195 0.1206-0.0772 0.2725-0.0772 0.1833 0 0.3039 0.0844 0.123 0.0844 0.1905 0.2556z"/><path d="m239.5 155.5h1.136v2.356h0.8802v0.3448h-2.204v-0.3448h0.8802v-2.011h-0.6921zm0.6921-1.051h0.4437v0.5619h-0.4437z"/><path d="m244.2 155.6v0.4341q-0.1905-0.1109-0.3834-0.1664-0.1929-0.0555-0.3931-0.0555-0.3014 0-0.451 0.0989-0.1471 0.0965-0.1471 0.2966 0 0.1809 0.1109 0.2701 0.1109 0.0892 0.5522 0.1736l0.1785 0.0338q0.3304 0.0627 0.4992 0.2508 0.1712 0.1881 0.1712 0.4896 0 0.4003-0.2846 0.627-0.2846 0.2243-0.791 0.2243-0.2002 0-0.4196-0.0434-0.2194-0.041-0.4751-0.1254v-0.4582q0.2484 0.1278 0.4751 0.1929 0.2267 0.0627 0.4293 0.0627 0.2942 0 0.4558-0.1182 0.1616-0.1206 0.1616-0.3352 0-0.3087-0.5908-0.4268l-0.0193-5e-3 -0.1664-0.0338q-0.3834-0.0748-0.5595-0.2508-0.176-0.1784-0.176-0.4847 0-0.3883 0.2629-0.5981 0.2629-0.2122 0.75-0.2122 0.217 0 0.4172 0.041 0.2002 0.0386 0.3931 0.1182z"/><path d="m247.2 155.6v0.4341q-0.1905-0.1109-0.3834-0.1664-0.1929-0.0555-0.3931-0.0555-0.3014 0-0.451 0.0989-0.1471 0.0965-0.1471 0.2966 0 0.1809 0.1109 0.2701 0.1109 0.0892 0.5522 0.1736l0.1785 0.0338q0.3304 0.0627 0.4992 0.2508 0.1712 0.1881 0.1712 0.4896 0 0.4003-0.2846 0.627-0.2846 0.2243-0.791 0.2243-0.2002 0-0.4196-0.0434-0.2194-0.041-0.4751-0.1254v-0.4582q0.2484 0.1278 0.4751 0.1929 0.2267 0.0627 0.4293 0.0627 0.2942 0 0.4558-0.1182 0.1616-0.1206 0.1616-0.3352 0-0.3087-0.5908-0.4268l-0.0193-5e-3 -0.1664-0.0338q-0.3834-0.0748-0.5595-0.2508-0.176-0.1784-0.176-0.4847 0-0.3883 0.2629-0.5981 0.2629-0.2122 0.75-0.2122 0.217 0 0.4172 0.041 0.2002 0.0386 0.3931 0.1182z"/><path d="m248.4 155.5h1.136v2.356h0.8802v0.3448h-2.204v-0.3448h0.8802v-2.011h-0.6921zm0.6921-1.051h0.4437v0.5619h-0.4437z"/><path d="m252.3 155.9q-0.3376 0-0.5112 0.2629-0.1736 0.2629-0.1736 0.7789 0 0.5137 0.1736 0.7789 0.1736 0.2629 0.5112 0.2629 0.34 0 0.5137-0.2629 0.1736-0.2653 0.1736-0.7789 0-0.5161-0.1736-0.7789t-0.5137-0.2629zm0-0.3762q0.5619 0 0.8585 0.3642 0.299 0.3642 0.299 1.054 0 0.6921-0.2966 1.056-0.2966 0.3617-0.8609 0.3617-0.5619 0-0.8585-0.3617-0.2966-0.3642-0.2966-1.056 0-0.6897 0.2966-1.054t0.8585-0.3642z"/><path d="m256.3 156.6v1.674h-0.4461v-1.674q0-0.3641-0.1278-0.5354-0.1278-0.1712-0.4003-0.1712-0.3111 0-0.4799 0.2219-0.1664 0.2194-0.1664 0.6318v1.527h-0.4437v-2.701h0.4437v0.4051q0.1182-0.2315 0.3207-0.3497 0.2026-0.1206 0.4799-0.1206 0.4124 0 0.615 0.2725 0.205 0.2701 0.205 0.8199z"/><path d="m216.2 162.8q0.615 0 0.8585-0.3014 0.2436-0.3039 0.2436-1.095 0-0.7982-0.2436-1.1-0.2412-0.3039-0.8585-0.3039h-0.2315v2.8zm0.01-3.2q0.8248 0 1.215 0.4389 0.3907 0.4389 0.3907 1.365 0 0.9212-0.3907 1.36-0.3907 0.4365-1.215 0.4365h-0.7307v-3.6z"/><path d="m219.6 160.8q-0.3376 0-0.5112 0.2629t-0.1736 0.7789q0 0.5137 0.1736 0.7789 0.1736 0.2629 0.5112 0.2629 0.34 0 0.5137-0.2629 0.1736-0.2653 0.1736-0.7789 0-0.5161-0.1736-0.7789-0.1736-0.2629-0.5137-0.2629zm0-0.3762q0.5619 0 0.8585 0.3642 0.299 0.3642 0.299 1.054 0 0.6921-0.2966 1.056-0.2966 0.3617-0.8609 0.3617-0.5619 0-0.8585-0.3617-0.2966-0.3641-0.2966-1.056 0-0.6897 0.2966-1.054 0.2966-0.3642 0.8585-0.3642z"/><path d="m223.6 163q-0.1784 0.1037-0.369 0.1543-0.1881 0.0531-0.3858 0.0531-0.627 0-0.9815-0.3762-0.3521-0.3762-0.3521-1.042 0-0.6656 0.3521-1.042 0.3545-0.3762 0.9815-0.3762 0.1953 0 0.381 0.0506t0.3738 0.1568v0.4654q-0.176-0.1568-0.3545-0.2267-0.176-0.0699-0.4003-0.0699-0.4172 0-0.6415 0.2701-0.2243 0.2701-0.2243 0.7717 0 0.4992 0.2243 0.7717 0.2267 0.2701 0.6415 0.2701 0.2315 0 0.4148-0.0699 0.1833-0.0724 0.34-0.2219z"/><path d="m224.5 162.2v-1.674h0.4437v1.674q0 0.3641 0.1278 0.5354 0.1302 0.1712 0.4003 0.1712 0.3135 0 0.4799-0.2195 0.1664-0.2219 0.1664-0.6342v-1.527h0.4461v2.696h-0.4461v-0.4051q-0.1182 0.2339-0.3232 0.3545-0.2026 0.1206-0.4751 0.1206-0.4148 0-0.6174-0.2701-0.2026-0.2725-0.2026-0.8223z"/><path d="m228.6 160.8q0.082-0.1736 0.2074-0.2556 0.1278-0.0844 0.3063-0.0844 0.3256 0 0.4582 0.2532 0.135 0.2508 0.135 0.9478v1.565h-0.4051v-1.546q0-0.5715-0.0651-0.709-0.0627-0.1399-0.2315-0.1399-0.1929 0-0.2653 0.1495-0.0699 0.1471-0.0699 0.6994v1.546h-0.4051v-1.546q0-0.5788-0.0699-0.7138-0.0675-0.135-0.246-0.135-0.176 0-0.246 0.1495-0.0675 0.1471-0.0675 0.6994v1.546h-0.4027v-2.701h0.4027v0.2315q0.0796-0.1447 0.1977-0.2195 0.1206-0.0772 0.2725-0.0772 0.1833 0 0.3039 0.0844 0.123 0.0844 0.1905 0.2556z"/><path d="m232.7 161.7v0.217h-1.922v0.0145q0 0.4413 0.2291 0.6825 0.2315 0.2412 0.6511 0.2412 0.2122 0 0.4437-0.0675t0.4944-0.205v0.4413q-0.2532 0.1037-0.4896 0.1543-0.2339 0.0531-0.4534 0.0531-0.6294 0-0.9839-0.3762-0.3545-0.3786-0.3545-1.042 0-0.6463 0.3473-1.032 0.3473-0.3859 0.926-0.3859 0.5161 0 0.8127 0.3497 0.299 0.3497 0.299 0.955zm-0.4437-0.1302q-0.01-0.3907-0.1857-0.5932-0.1736-0.205-0.5016-0.205-0.3207 0-0.5281 0.2122-0.2074 0.2122-0.246 0.5884z"/><path d="m235.5 161.5v1.674h-0.4461v-1.674q0-0.3641-0.1278-0.5354-0.1278-0.1712-0.4003-0.1712-0.3111 0-0.4799 0.2219-0.1664 0.2194-0.1664 0.6318v1.527h-0.4437v-2.701h0.4437v0.4051q0.1182-0.2315 0.3207-0.3497 0.2026-0.1206 0.4799-0.1206 0.4124 0 0.615 0.2725 0.205 0.2701 0.205 0.8199z"/><path d="m237.4 159.7v0.7669h1.008v0.3448h-1.008v1.466q0 0.299 0.1134 0.4172 0.1133 0.1182 0.3955 0.1182h0.4992v0.3545h-0.5426q-0.4992 0-0.7042-0.2002-0.205-0.2002-0.205-0.6897v-1.466h-0.721v-0.3448h0.721v-0.7669z"/><path d="m241.3 159.7v0.4944q-0.2219-0.1423-0.4461-0.2146-0.2219-0.0723-0.4486-0.0723-0.3449 0-0.545 0.1616-0.2002 0.1592-0.2002 0.4317 0 0.2388 0.1302 0.3642 0.1326 0.1254 0.492 0.2098l0.2556 0.0579q0.5064 0.1182 0.7379 0.3714 0.2315 0.2532 0.2315 0.6897 0 0.5137-0.3183 0.7838-0.3183 0.2701-0.926 0.2701-0.2532 0-0.5088-0.0555-0.2556-0.053-0.5137-0.1616v-0.5185q0.2773 0.176 0.5233 0.258 0.2484 0.082 0.4992 0.082 0.369 0 0.574-0.164 0.205-0.1664 0.205-0.463 0-0.2701-0.1423-0.4124-0.1399-0.1423-0.4896-0.2195l-0.2604-0.0603q-0.5016-0.1133-0.7283-0.3424t-0.2267-0.615q0-0.4823 0.3232-0.7717 0.3256-0.2918 0.8633-0.2918 0.2074 0 0.4365 0.0482 0.2291 0.0458 0.4823 0.1399z"/><path d="m243.4 159.7v0.7669h1.008v0.3448h-1.008v1.466q0 0.299 0.1133 0.4172 0.1134 0.1182 0.3955 0.1182h0.4992v0.3545h-0.5426q-0.4992 0-0.7042-0.2002-0.205-0.2002-0.205-0.6897v-1.466h-0.7211v-0.3448h0.7211v-0.7669z"/><path d="m246.5 161.8h-0.1471q-0.3883 0-0.586 0.1375-0.1953 0.135-0.1953 0.4051 0 0.2436 0.1471 0.3786 0.1471 0.135 0.4076 0.135 0.3666 0 0.5764-0.2532 0.2098-0.2556 0.2122-0.7042v-0.0989zm0.8609-0.1833v1.541h-0.4461v-0.4003q-0.1423 0.2412-0.3593 0.3569-0.2146 0.1134-0.5233 0.1134-0.4124 0-0.6584-0.2315-0.246-0.2339-0.246-0.6246 0-0.451 0.3014-0.6849 0.3039-0.2339 0.8899-0.2339h0.5957v-0.0699q-2e-3 -0.3232-0.164-0.4678-0.1616-0.1471-0.5161-0.1471-0.2267 0-0.4582 0.0651t-0.451 0.1905v-0.4437q0.246-0.094 0.4702-0.1399 0.2267-0.0482 0.4389-0.0482 0.3352 0 0.5715 0.0989 0.2387 0.0989 0.3858 0.2966 0.0916 0.1206 0.1302 0.299 0.0386 0.176 0.0386 0.5305z"/><path d="m249.3 159.7v0.7669h1.008v0.3448h-1.008v1.466q0 0.299 0.1134 0.4172 0.1133 0.1182 0.3955 0.1182h0.4992v0.3545h-0.5426q-0.4992 0-0.7042-0.2002t-0.205-0.6897v-1.466h-0.7211v-0.3448h0.7211v-0.7669z"/><path d="m251.3 162.2v-1.674h0.4437v1.674q0 0.3641 0.1278 0.5354 0.1302 0.1712 0.4003 0.1712 0.3135 0 0.4799-0.2195 0.1664-0.2219 0.1664-0.6342v-1.527h0.4461v2.696h-0.4461v-0.4051q-0.1182 0.2339-0.3232 0.3545-0.2026 0.1206-0.4751 0.1206-0.4148 0-0.6174-0.2701-0.2026-0.2725-0.2026-0.8223z"/><path d="m256.1 160.6v0.4341q-0.1905-0.1109-0.3834-0.1664-0.1929-0.0555-0.3931-0.0555-0.3014 0-0.451 0.0989-0.1471 0.0965-0.1471 0.2966 0 0.1809 0.1109 0.2701 0.1109 0.0892 0.5522 0.1736l0.1785 0.0338q0.3304 0.0627 0.4992 0.2508 0.1712 0.1881 0.1712 0.4895 0 0.4003-0.2846 0.627-0.2846 0.2243-0.791 0.2243-0.2002 0-0.4196-0.0434-0.2194-0.041-0.4751-0.1254v-0.4582q0.2484 0.1278 0.4751 0.1929 0.2267 0.0627 0.4293 0.0627 0.2942 0 0.4558-0.1182 0.1616-0.1206 0.1616-0.3352 0-0.3087-0.5908-0.4268l-0.0193-5e-3 -0.1664-0.0338q-0.3834-0.0748-0.5595-0.2508-0.176-0.1785-0.176-0.4847 0-0.3883 0.2629-0.5981 0.2629-0.2122 0.75-0.2122 0.217 0 0.4172 0.041 0.2002 0.0386 0.3931 0.1182z"/></g></svg>
