<?xml version="1.0" encoding="UTF-8" standalone="no"?>
<!DOCTYPE svg PUBLIC "-//W3C//DTD SVG 1.1//EN"
 "http://www.w3.org/Graphics/SVG/1.1/DTD/svg11.dtd">
<!-- Generated by graphviz version 12.1.2 (0)
 -->
<!-- Title: BerichtenData Pages: 1 -->
<svg width="1195pt" height="276pt"
 viewBox="0.00 0.00 1194.50 276.00" xmlns="http://www.w3.org/2000/svg" xmlns:xlink="http://www.w3.org/1999/xlink">
<g id="graph0" class="graph" transform="scale(1 1) rotate(0) translate(4 272)">
<title>BerichtenData</title>
<polygon fill="white" stroke="none" points="-4,4 -4,-272 1190.5,-272 1190.5,4 -4,4"/>
<!-- Conversation -->
<g id="node1" class="node">
<title>Conversation</title>
<polygon fill="none" stroke="black" points="274,-234.75 4,-234.75 4,-144.75 274,-144.75 274,-234.75"/>
<polygon fill="none" stroke="black" points="278,-238.75 0,-238.75 0,-140.75 278,-140.75 278,-238.75"/>
<polygon fill="none" stroke="black" points="4,-209.25 4,-234.75 274,-234.75 274,-209.25 4,-209.25"/>
<text text-anchor="start" x="60.62" y="-219.45" font-family="Monospace" font-weight="bold" font-size="14.00">schema:Conversation</text>
<polygon fill="none" stroke="black" points="4,-144.75 4,-209.25 274,-209.25 274,-144.75 4,-144.75"/>
<text text-anchor="start" x="7" y="-192.95" font-family="Monospace" font-size="14.00"> core:uuid : xsd:string </text>
<text text-anchor="start" x="7" y="-173.45" font-family="Monospace" font-size="14.00"> schema:about : xsd:string </text>
<text text-anchor="start" x="7" y="-153.95" font-family="Monospace" font-size="14.00"> schema:identifier : xsd:string </text>
</g>
<!-- Message -->
<g id="node2" class="node">
<title>Message</title>
<polygon fill="none" stroke="black" points="802.5,-264 433.5,-264 433.5,-115.5 802.5,-115.5 802.5,-264"/>
<polygon fill="none" stroke="black" points="806.5,-268 429.5,-268 429.5,-111.5 806.5,-111.5 806.5,-268"/>
<polygon fill="none" stroke="black" points="433.5,-238.5 433.5,-264 802.5,-264 802.5,-238.5 433.5,-238.5"/>
<text text-anchor="start" x="560.25" y="-248.7" font-family="Monospace" font-weight="bold" font-size="14.00">schema:Message</text>
<polygon fill="none" stroke="black" points="433.5,-115.5 433.5,-238.5 802.5,-238.5 802.5,-115.5 433.5,-115.5"/>
<text text-anchor="start" x="436.5" y="-222.2" font-family="Monospace" font-size="14.00"> core:uuid : xsd:string </text>
<text text-anchor="start" x="436.5" y="-202.7" font-family="Monospace" font-size="14.00"> dcterms:type : xsd:string </text>
<text text-anchor="start" x="436.5" y="-183.2" font-family="Monospace" font-size="14.00"> schema:sender : besluit:Bestuurseenheid </text>
<text text-anchor="start" x="436.5" y="-163.7" font-family="Monospace" font-size="14.00"> schema:recipient : besluit:Bestuurseenheid </text>
<text text-anchor="start" x="436.5" y="-144.2" font-family="Monospace" font-size="14.00"> schema:text : xsd:string </text>
<text text-anchor="start" x="436.5" y="-124.7" font-family="Monospace" font-size="14.00"> schema:dateSent : xsd:dateTime </text>
</g>
<!-- Conversation&#45;&gt;Message -->
<g id="edge1" class="edge">
<title>Conversation&#45;&gt;Message</title>
<path fill="none" stroke="black" d="M278.29,-189.75C321.97,-189.75 371.13,-189.75 418.17,-189.75"/>
<polygon fill="black" stroke="black" points="417.93,-193.25 427.93,-189.75 417.93,-186.25 417.93,-193.25"/>
<text text-anchor="middle" x="353.75" y="-195.95" font-family="Monospace" font-size="14.00">schema:hasPart</text>
</g>
<!-- File -->
<g id="node3" class="node">
<title>File</title>
<polygon fill="none" stroke="black" points="1182.5,-264 937.25,-264 937.25,-115.5 1182.5,-115.5 1182.5,-264"/>
<polygon fill="none" stroke="black" points="1186.5,-268 933.25,-268 933.25,-111.5 1186.5,-111.5 1186.5,-268"/>
<polygon fill="none" stroke="black" points="937.25,-238.5 937.25,-264 1182.5,-264 1182.5,-238.5 937.25,-238.5"/>
<text text-anchor="start" x="985.62" y="-248.7" font-family="Monospace" font-weight="bold" font-size="14.00">nfo:FileDataObject</text>
<polygon fill="none" stroke="black" points="937.25,-115.5 937.25,-238.5 1182.5,-238.5 1182.5,-115.5 937.25,-115.5"/>
<text text-anchor="start" x="940.25" y="-222.2" font-family="Monospace" font-size="14.00"> core:uuid : xsd:string </text>
<text text-anchor="start" x="940.25" y="-202.7" font-family="Monospace" font-size="14.00"> dct:created : xsd:dateTime </text>
<text text-anchor="start" x="940.25" y="-183.2" font-family="Monospace" font-size="14.00"> dct:modified : xsd:dateTime </text>
<text text-anchor="start" x="940.25" y="-163.7" font-family="Monospace" font-size="14.00"> nfo:fileName : xsd:string </text>
<text text-anchor="start" x="940.25" y="-144.2" font-family="Monospace" font-size="14.00"> adms:status → skos:concept </text>
<text text-anchor="start" x="940.25" y="-124.7" font-family="Monospace" font-size="14.00"> nie:url : xsd:anyURI </text>
</g>
<!-- Message&#45;&gt;File -->
<g id="edge2" class="edge">
<title>Message&#45;&gt;File</title>
<path fill="none" stroke="black" d="M806.82,-189.75C845.44,-189.75 885.41,-189.75 921.83,-189.75"/>
<polygon fill="black" stroke="black" points="921.5,-193.25 931.5,-189.75 921.5,-186.25 921.5,-193.25"/>
<text text-anchor="middle" x="869.88" y="-195.95" font-family="Monospace" font-size="14.00">nie:hasPart</text>
</g>
<!-- Job -->
<g id="node4" class="node">
<title>Job</title>
<polygon fill="none" stroke="black" points="253.38,-113.5 24.62,-113.5 24.62,-4 253.38,-4 253.38,-113.5"/>
<polygon fill="none" stroke="black" points="257.38,-117.5 20.62,-117.5 20.62,0 257.38,0 257.38,-117.5"/>
<polygon fill="none" stroke="black" points="24.62,-88 24.62,-113.5 253.38,-113.5 253.38,-88 24.62,-88"/>
<text text-anchor="start" x="106" y="-98.2" font-family="Monospace" font-weight="bold" font-size="14.00">cogs:Job</text>
<polygon fill="none" stroke="black" points="24.62,-4 24.62,-88 253.38,-88 253.38,-4 24.62,-4"/>
<text text-anchor="start" x="27.62" y="-71.7" font-family="Monospace" font-size="14.00"> core:uuid : xsd:string </text>
<text text-anchor="start" x="27.62" y="-52.2" font-family="Monospace" font-size="14.00"> adms:status skos:concept </text>
<text text-anchor="start" x="27.62" y="-32.7" font-family="Monospace" font-size="14.00"> dct:created xsd:dateTime </text>
<text text-anchor="start" x="27.62" y="-13.2" font-family="Monospace" font-size="14.00"> dct:modified xsd:dateTime </text>
</g>
<!-- Job&#45;&gt;Message -->
<g id="edge3" class="edge">
<title>Job&#45;&gt;Message</title>
<path fill="none" stroke="black" d="M257.6,-91.05C306.1,-104.37 363.65,-120.17 418.34,-135.19"/>
<polygon fill="black" stroke="black" points="417.2,-138.51 427.77,-137.78 419.06,-131.76 417.2,-138.51"/>
<text text-anchor="middle" x="353.75" y="-138.29" font-family="Monospace" font-size="14.00">dct:subject</text>
</g>
<!-- Error -->
<g id="node5" class="node">
<title>Error</title>
<polygon fill="none" stroke="black" points="732.38,-89 503.62,-89 503.62,-18.5 732.38,-18.5 732.38,-89"/>
<polygon fill="none" stroke="black" points="736.38,-93 499.62,-93 499.62,-14.5 736.38,-14.5 736.38,-93"/>
<polygon fill="none" stroke="black" points="503.62,-63.5 503.62,-89 732.38,-89 732.38,-63.5 503.62,-63.5"/>
<text text-anchor="start" x="576.75" y="-73.7" font-family="Monospace" font-weight="bold" font-size="14.00">oslc:Error</text>
<polygon fill="none" stroke="black" points="503.62,-18.5 503.62,-63.5 732.38,-63.5 732.38,-18.5 503.62,-18.5"/>
<text text-anchor="start" x="506.62" y="-47.2" font-family="Monospace" font-size="14.00"> core:uuid : xsd:string </text>
<text text-anchor="start" x="506.62" y="-27.7" font-family="Monospace" font-size="14.00"> oslc:message : xsd:string </text>
</g>
<!-- Job&#45;&gt;Error -->
<g id="edge4" class="edge">
<title>Job&#45;&gt;Error</title>
<path fill="none" stroke="black" d="M257.6,-57.52C327.52,-56.78 416.28,-55.85 488.1,-55.1"/>
<polygon fill="black" stroke="black" points="488,-58.6 497.96,-55 487.92,-51.6 488,-58.6"/>
<text text-anchor="middle" x="353.75" y="-63.19" font-family="Monospace" font-size="14.00">task:error</text>
</g>
</g>
</svg>
